{"glyphs":{" ":{"ha":351,"x_min":0,"x_max":0,"o":""},"က":{"ha":1226,"x_min":69,"x_max":1157,"o":"m 674 525 q 694 361 694 456 q 493 0 694 58 l 456 89 q 581 361 581 133 q 382 631 581 631 q 183 361 183 631 q 308 89 183 133 l 271 0 q 69 361 69 58 q 382 722 69 722 q 613 636 535 722 q 844 722 692 722 q 1157 361 1157 722 q 844 0 1157 0 l 844 92 q 1043 361 1043 92 q 844 631 1043 631 q 674 525 721 631 z "},"ခ":{"ha":764,"x_min":69,"x_max":694,"o":"m 567 239 q 581 361 581 290 q 368 631 581 631 q 178 510 221 631 l 69 544 q 368 722 135 722 q 694 361 694 722 q 368 0 694 0 q 69 217 128 0 q 290 331 147 331 q 403 315 342 331 q 567 239 508 289 m 190 188 q 368 92 242 92 q 511 140 458 92 q 381 226 475 203 q 310 236 343 236 q 190 188 238 236 z "},"ဂ":{"ha":764,"x_min":69,"x_max":694,"o":"m 382 722 q 694 361 694 722 q 493 0 694 58 l 456 89 q 581 361 581 133 q 382 631 581 631 q 183 361 183 631 q 308 89 183 133 l 271 0 q 69 361 69 58 q 382 722 69 722 z "},"ဃ":{"ha":1226,"x_min":69,"x_max":1157,"o":"m 157 704 q 239 722 203 722 q 357 629 322 722 q 369 567 369 596 q 257 436 369 481 q 183 361 183 408 q 382 92 183 92 q 581 361 581 92 q 456 633 581 589 l 493 722 q 694 361 694 664 q 674 197 694 267 q 844 92 721 92 q 1043 361 1043 92 q 844 631 1043 631 l 844 722 q 1157 361 1157 722 q 844 0 1157 0 q 613 86 692 0 q 382 0 535 0 q 69 361 69 0 q 224 524 69 469 q 275 578 275 543 q 272 596 275 586 q 231 628 261 628 q 192 618 214 628 l 104 585 l 69 668 l 157 704 z "},"င":{"ha":764,"x_min":69,"x_max":694,"o":"m 69 361 q 396 722 69 722 q 694 544 629 722 l 586 510 q 396 631 543 631 q 183 361 183 631 q 396 92 183 92 q 586 213 543 92 l 694 178 q 396 0 629 0 q 69 361 69 0 z "},"စ":{"ha":764,"x_min":69,"x_max":694,"o":"m 296 108 q 382 92 333 92 q 581 361 581 92 q 382 631 581 631 q 296 614 333 631 q 410 361 410 538 q 296 108 410 185 m 224 550 q 183 361 183 483 q 224 174 183 240 q 318 361 318 229 q 224 550 318 494 m 382 722 q 694 361 694 722 q 382 0 694 0 q 69 361 69 0 q 382 722 69 722 z "},"ဆ":{"ha":1226,"x_min":69,"x_max":1157,"o":"m 190 188 q 368 92 242 92 q 511 140 458 92 q 381 226 475 203 q 310 236 343 236 q 190 188 238 236 m 672 199 l 674 200 q 844 92 719 92 q 1043 361 1043 92 q 844 631 1043 631 q 674 525 721 631 q 694 361 694 456 q 672 199 694 267 m 581 361 q 368 631 581 631 q 178 510 221 631 l 69 544 q 368 722 135 722 q 613 636 535 722 q 844 722 692 722 q 1157 361 1157 722 q 844 0 1157 0 q 611 89 689 0 q 368 0 529 0 q 69 217 128 0 q 290 331 147 331 q 403 315 342 331 q 567 239 508 289 q 581 361 581 290 z "},"ဇ":{"ha":764,"x_min":69,"x_max":761,"o":"m 660 111 q 396 0 581 0 q 69 361 69 0 q 396 722 69 722 q 694 544 629 722 q 700 489 700 519 q 640 367 700 399 q 732 328 682 328 q 761 331 746 328 l 761 247 q 735 246 747 246 q 546 350 631 246 q 422 489 422 358 q 489 615 422 585 q 396 631 449 631 q 183 361 183 631 q 396 92 183 92 q 564 167 513 92 l 660 111 m 561 536 q 514 489 514 536 q 561 442 514 442 q 608 489 608 442 q 561 536 608 536 z "},"ဈ":{"ha":1017,"x_min":69,"x_max":947,"o":"m 296 108 q 382 92 333 92 q 581 361 581 92 q 382 631 581 631 q 296 614 333 631 q 410 361 410 538 q 296 108 410 185 m 224 550 q 183 361 183 483 q 224 174 183 240 q 318 361 318 229 q 224 550 318 494 m 382 0 q 69 361 69 0 q 382 722 69 722 q 694 361 694 722 q 496 15 694 74 l 496 -208 q 581 -287 496 -287 l 750 -287 q 833 -208 833 -287 l 833 722 l 947 722 l 947 -208 q 750 -379 947 -379 l 581 -379 q 382 -208 382 -379 l 382 0 z "},"ဉ":{"ha":764,"x_min":69,"x_max":947,"o":"m 735 -287 q 833 -194 833 -287 l 833 -69 l 947 -69 l 947 -194 q 735 -379 947 -379 l 283 -379 q 69 -194 69 -379 l 69 178 l 178 213 q 368 92 221 92 q 581 361 581 92 q 368 631 581 631 q 178 510 221 631 l 69 544 q 368 722 135 722 q 694 361 694 722 q 368 0 694 0 q 183 40 257 0 l 183 -194 q 283 -287 183 -287 l 735 -287 z "},"ည":{"ha":1226,"x_min":69,"x_max":1157,"o":"m 944 -287 q 1043 -194 1043 -287 l 1043 -69 l 1157 -69 l 1157 -194 q 944 -379 1157 -379 l 283 -379 q 69 -194 69 -379 l 69 178 l 178 213 q 368 92 221 92 q 581 361 581 92 q 368 631 581 631 q 178 510 221 631 l 69 544 q 368 722 135 722 q 694 361 694 722 q 674 197 694 267 q 844 92 721 92 q 1043 361 1043 92 q 844 631 1043 631 l 844 722 q 1157 361 1157 722 q 844 0 1157 0 q 613 86 692 0 q 368 0 535 0 q 183 40 257 0 l 183 -194 q 283 -287 183 -287 l 944 -287 z "},"ဋ":{"ha":764,"x_min":69,"x_max":764,"o":"m 694 -287 l 764 -287 l 764 -379 l 581 -379 l 581 -256 q 382 -278 490 -278 q 69 -215 197 -278 l 69 -42 l 163 0 q 382 -56 247 -56 q 581 -12 500 -56 l 581 40 q 396 0 507 0 q 69 361 69 0 q 396 722 69 722 q 694 544 629 722 l 586 510 q 396 631 543 631 q 183 361 183 631 q 396 92 183 92 q 586 213 543 92 l 694 178 l 694 -40 q 382 -139 582 -139 q 183 -107 268 -139 l 183 -168 q 382 -194 271 -194 q 651 -139 542 -194 l 694 -156 l 694 -287 z "},"ဌ":{"ha":764,"x_min":69,"x_max":694,"o":"m 581 40 q 396 0 507 0 q 69 361 69 0 q 396 722 69 722 q 694 544 629 722 l 586 510 q 396 631 543 631 q 183 361 183 631 q 396 92 183 92 q 586 213 543 92 l 694 178 l 694 -194 q 481 -379 694 -379 l 278 -379 q 69 -231 69 -379 q 278 -83 69 -83 l 364 -83 l 364 -175 l 278 -175 q 183 -231 183 -175 q 278 -287 183 -287 l 481 -287 q 581 -194 581 -287 l 581 40 z "},"ဍ":{"ha":764,"x_min":69,"x_max":764,"o":"m 581 -121 q 382 -153 496 -153 q 69 -54 182 -153 l 69 178 l 178 213 q 368 92 221 92 q 581 361 581 92 q 368 631 581 631 q 178 510 221 631 l 69 544 q 368 722 135 722 q 694 361 694 722 q 368 0 694 0 q 183 40 257 0 l 183 -26 q 382 -69 264 -69 q 601 0 517 -69 l 694 -42 l 694 -287 l 764 -287 l 764 -379 l 581 -379 l 581 -121 z "},"ဎ":{"ha":764,"x_min":69,"x_max":694,"o":"m 183 361 q 382 92 183 92 q 581 361 581 92 q 456 633 581 589 l 493 722 q 694 361 694 664 q 382 0 694 0 q 69 361 69 0 q 224 524 69 469 q 275 578 275 543 q 272 596 275 586 q 231 628 261 628 q 192 618 214 628 l 104 585 l 69 668 l 157 704 q 239 722 203 722 q 357 629 322 722 q 369 567 369 596 q 257 436 369 481 q 183 361 183 408 z "},"ဏ":{"ha":1500,"x_min":69,"x_max":1431,"o":"m 910 657 q 1118 722 986 722 q 1431 361 1431 722 q 1229 0 1431 58 l 1192 89 q 1317 361 1317 133 q 1118 631 1317 631 q 919 361 919 631 q 925 240 919 275 l 926 224 q 939 143 939 178 q 750 0 939 0 q 561 143 561 0 q 574 224 561 178 l 576 240 q 581 361 581 275 q 382 631 581 631 q 183 361 183 631 q 308 89 183 133 l 271 0 q 69 361 69 58 q 382 722 69 722 q 590 657 514 722 q 750 722 633 722 q 910 657 867 722 m 806 361 q 847 578 806 494 q 750 631 828 631 q 653 578 672 631 q 694 361 694 494 q 678 208 694 275 q 665 153 665 176 q 750 92 665 92 q 835 153 835 92 q 822 208 835 176 q 806 361 806 275 z "},"တ":{"ha":1226,"x_min":69,"x_max":1157,"o":"m 69 361 q 382 722 69 722 q 613 636 535 722 q 844 722 692 722 q 1157 361 1157 722 q 844 0 1157 0 l 844 92 q 1043 361 1043 92 q 844 631 1043 631 q 674 525 721 631 q 694 361 694 456 q 382 0 694 0 q 69 361 69 0 m 581 361 q 382 631 581 631 q 183 361 183 631 q 382 92 183 92 q 581 361 581 92 z "},"ထ":{"ha":1226,"x_min":69,"x_max":1157,"o":"m 382 0 q 69 361 69 0 q 382 722 69 722 q 613 636 535 722 q 844 722 692 722 q 1157 361 1157 722 q 844 0 1157 0 q 613 86 692 0 q 382 0 535 0 m 844 92 q 1043 361 1043 92 q 844 631 1043 631 q 674 525 721 631 q 694 361 694 456 q 674 197 694 267 q 844 92 721 92 m 581 361 q 382 631 581 631 q 183 361 183 631 q 382 92 183 92 q 581 361 581 92 z "},"ဒ":{"ha":764,"x_min":69,"x_max":694,"o":"m 382 0 q 69 178 135 0 l 178 213 q 382 92 221 92 q 581 208 581 92 q 425 315 581 315 l 425 407 q 581 514 581 407 q 382 631 581 631 q 183 514 183 631 q 250 467 183 467 l 250 375 q 69 514 69 375 q 382 722 69 722 q 694 514 694 722 q 611 361 694 411 q 694 208 694 311 q 382 0 694 0 z "},"ဓ":{"ha":764,"x_min":69,"x_max":694,"o":"m 578 307 q 581 361 581 332 q 382 631 581 631 q 183 361 183 631 q 186 306 183 332 q 382 361 260 361 q 578 307 504 361 m 219 181 q 382 92 268 92 q 544 181 496 92 q 382 269 496 269 q 219 181 268 269 m 382 722 q 694 361 694 722 q 382 0 694 0 q 69 361 69 0 q 382 722 69 722 z "},"န":{"ha":764,"x_min":69,"x_max":694,"o":"m 358 92 l 358 139 q 243 228 358 228 q 183 167 183 228 q 358 92 183 96 m 472 6 l 472 -379 l 358 -379 l 358 0 q 69 167 69 7 q 243 319 69 319 q 472 139 472 319 l 472 100 q 581 222 581 126 q 397 376 581 326 q 153 569 153 443 q 382 722 153 722 q 611 601 536 722 l 517 542 q 382 631 468 631 q 267 569 267 631 q 421 465 267 507 q 694 222 694 390 q 472 6 694 35 z "},"ပ":{"ha":764,"x_min":69,"x_max":694,"o":"m 382 0 q 69 361 69 0 q 271 722 69 664 l 308 633 q 183 361 183 589 q 382 92 183 92 q 581 361 581 92 q 456 633 581 589 l 493 722 q 694 361 694 664 q 382 0 694 0 z "},"ဖ":{"ha":764,"x_min":69,"x_max":694,"o":"m 493 722 q 694 361 694 664 q 382 0 694 0 q 69 361 69 0 q 271 722 69 664 l 308 633 q 183 361 183 589 q 382 92 183 92 q 558 211 514 92 q 458 279 503 232 q 381 475 381 360 q 493 722 381 617 m 514 596 q 472 475 472 544 q 524 343 472 397 q 578 303 549 317 q 581 361 581 331 q 514 596 581 528 z "},"ဗ":{"ha":764,"x_min":69,"x_max":694,"o":"m 464 653 l 493 722 q 694 361 694 664 q 382 0 694 0 q 69 361 69 0 q 271 722 69 664 l 300 653 l 300 618 q 382 550 300 550 q 464 618 464 550 l 464 653 m 546 551 q 382 458 514 458 q 218 551 250 458 q 183 361 183 482 q 382 92 183 92 q 581 361 581 92 q 546 551 581 482 z "},"ဘ":{"ha":1226,"x_min":69,"x_max":1157,"o":"m 694 361 q 368 0 694 0 q 69 178 135 0 l 178 213 q 368 92 221 92 q 581 361 581 92 q 369 631 581 631 q 179 510 222 631 l 71 544 q 369 722 136 722 q 613 636 535 722 q 844 722 692 722 q 1157 361 1157 722 q 844 0 1157 0 l 844 92 q 1043 361 1043 92 q 844 631 1043 631 q 674 525 721 631 q 694 361 694 456 z "},"မ":{"ha":764,"x_min":69,"x_max":694,"o":"m 219 181 q 382 92 268 92 q 544 181 496 92 q 382 269 496 269 q 219 181 268 269 m 69 361 q 271 722 69 664 l 308 633 q 183 361 183 589 q 186 306 183 332 q 382 361 260 361 q 578 307 504 361 q 581 361 581 332 q 456 633 581 589 l 493 722 q 694 361 694 664 q 382 0 694 0 q 69 361 69 0 z "},"ယ":{"ha":1226,"x_min":69,"x_max":1157,"o":"m 674 197 q 844 92 721 92 q 1043 361 1043 92 q 844 631 1043 631 l 844 722 q 1157 361 1157 722 q 844 0 1157 0 q 613 86 692 0 q 382 0 535 0 q 69 361 69 0 q 271 722 69 664 l 308 633 q 183 361 183 589 q 382 92 183 92 q 581 361 581 92 q 456 633 581 589 l 493 722 q 694 361 694 664 q 674 197 694 267 z "},"ရ":{"ha":764,"x_min":69,"x_max":764,"o":"m 382 0 q 69 361 69 0 q 382 722 69 722 q 694 361 694 722 l 694 -287 l 764 -287 l 764 -379 l 581 -379 l 581 361 q 382 631 581 631 q 190 456 222 631 q 257 436 224 450 q 406 288 360 393 q 429 175 429 233 q 382 0 429 92 m 324 99 q 336 181 336 143 q 322 250 336 219 q 222 351 292 322 q 183 364 203 360 l 183 361 q 324 99 183 135 z "},"လ":{"ha":1275,"x_min":69,"x_max":1206,"o":"m 1206 361 q 893 0 1206 0 q 581 361 581 0 q 382 631 581 631 q 183 361 183 631 q 382 92 183 92 l 382 0 q 69 361 69 0 q 382 722 69 722 q 694 361 694 722 q 893 92 694 92 q 1092 361 1092 92 q 893 631 1092 631 l 893 722 q 1206 361 1206 722 z "},"ဝ":{"ha":764,"x_min":69,"x_max":694,"o":"m 382 631 q 183 361 183 631 q 382 92 183 92 q 581 361 581 92 q 382 631 581 631 m 382 722 q 694 361 694 722 q 382 0 694 0 q 69 361 69 0 q 382 722 69 722 z "},"သ":{"ha":1226,"x_min":69,"x_max":1157,"o":"m 694 361 q 674 197 694 267 q 844 92 721 92 q 1043 361 1043 92 q 844 631 1043 631 l 844 722 q 1157 361 1157 722 q 844 0 1157 0 q 613 86 692 0 q 369 0 535 0 q 71 178 136 0 l 179 213 q 369 92 222 92 q 581 361 581 92 q 368 631 581 631 q 178 510 221 631 l 69 544 q 368 722 135 722 q 694 361 694 722 z "},"ဟ":{"ha":1226,"x_min":69,"x_max":1157,"o":"m 618 642 q 844 722 697 722 q 1157 361 1157 722 q 844 0 1157 0 l 844 92 q 1043 361 1043 92 q 844 631 1043 631 q 675 528 722 631 q 694 361 694 456 q 382 0 694 0 q 69 361 69 0 q 271 722 69 664 l 308 633 q 183 361 183 589 q 382 92 183 92 q 581 361 581 92 q 456 633 581 589 l 493 722 q 618 642 571 700 z "},"ဠ":{"ha":764,"x_min":69,"x_max":694,"o":"m 524 -287 q 581 -236 581 -287 l 581 -181 l 694 -181 l 694 -236 q 524 -379 694 -379 l 253 -379 q 69 -236 69 -379 l 69 -42 l 163 0 q 382 -69 247 -69 q 581 -26 500 -69 l 581 40 q 396 0 507 0 q 69 361 69 0 q 396 722 69 722 q 694 544 629 722 l 586 510 q 396 631 543 631 q 183 361 183 631 q 396 92 183 92 q 586 213 543 92 l 694 178 l 694 -54 q 382 -153 582 -153 q 183 -121 268 -153 l 183 -236 q 253 -287 183 -287 l 524 -287 z "},"အ":{"ha":1226,"x_min":69,"x_max":1157,"o":"m 1043 361 l 1043 364 q 1004 351 1024 360 q 904 250 935 322 q 890 181 890 219 q 903 99 890 143 q 1043 361 1043 135 m 635 657 q 844 722 711 722 q 1157 361 1157 722 q 844 0 1157 0 q 797 175 797 92 q 821 288 797 233 q 969 436 867 393 q 1036 456 1003 450 q 844 631 1004 631 q 690 557 740 631 q 694 514 694 538 q 611 361 694 411 q 694 208 694 311 q 382 0 694 0 q 69 178 135 0 l 178 213 q 382 92 221 92 q 581 208 581 92 q 425 315 581 315 l 425 407 q 581 514 581 407 q 382 631 581 631 q 183 528 183 631 q 250 494 183 494 l 250 403 q 69 528 69 403 q 382 722 69 722 q 635 657 557 722 z "},"ဢ":{"ha":1226,"x_min":69,"x_max":1157,"o":"m 69 54 l 104 138 l 192 104 q 231 94 214 94 q 272 126 261 94 q 275 144 275 136 q 224 199 275 179 q 69 361 69 253 q 382 722 69 722 q 613 636 535 722 q 844 722 692 722 q 1157 361 1157 722 q 844 0 1157 0 l 844 92 q 1043 361 1043 92 q 844 631 1043 631 q 674 525 721 631 q 694 361 694 456 q 493 0 694 58 l 456 89 q 581 361 581 133 q 382 631 581 631 q 183 361 183 631 q 257 286 183 314 q 369 156 369 242 q 357 93 369 126 q 239 0 322 0 q 157 18 203 0 l 69 54 z "},"ဣ":{"ha":1226,"x_min":69,"x_max":1157,"o":"m 674 525 q 694 361 694 456 q 493 0 694 58 l 456 89 q 581 361 581 133 q 382 631 581 631 q 183 361 183 631 q 308 89 183 133 l 271 0 q 69 361 69 58 q 382 722 69 722 q 613 636 535 722 q 844 722 692 722 q 1157 361 1157 722 q 844 0 1157 0 l 844 92 q 1043 361 1043 92 q 844 631 1043 631 q 674 525 721 631 m 864 -379 l 864 -310 q 954 -206 954 -310 q 808 -101 954 -101 q 663 -206 663 -101 q 524 -379 663 -350 l 490 -315 q 565 -206 565 -294 q 419 -101 565 -101 q 274 -206 274 -101 q 349 -315 274 -294 l 315 -379 q 176 -206 176 -350 q 419 -32 176 -32 q 614 -85 554 -32 q 808 -32 674 -32 q 1051 -206 1051 -32 q 1026 -310 1051 -269 l 1108 -310 l 1111 -379 l 864 -379 z "},"ဤ":{"ha":1479,"x_min":69,"x_max":1479,"o":"m 278 -379 q 69 -217 69 -379 q 278 -56 69 -56 q 836 -139 557 -56 l 836 -231 q 278 -147 557 -147 q 183 -217 183 -147 q 278 -287 183 -287 l 960 -287 q 1043 -208 1043 -287 l 1043 361 q 844 631 1043 631 q 674 525 721 631 q 694 361 694 456 q 493 0 694 58 l 456 89 q 581 361 581 133 q 382 631 581 631 q 183 361 183 631 q 308 89 183 133 l 271 0 q 69 361 69 58 q 382 722 69 722 q 613 636 535 722 q 844 722 692 722 q 1157 361 1157 722 l 1157 -208 q 960 -379 1157 -379 l 278 -379 m 1410 417 l 1410 -379 l 1296 -379 l 1296 417 q 1096 736 1296 640 q 894 1047 894 833 q 1207 1360 894 1360 q 1479 1206 1419 1360 l 1406 1164 q 1207 1268 1358 1268 q 986 1047 986 1268 q 1135 819 986 890 q 1410 417 1410 688 z "},"ဥ":{"ha":764,"x_min":69,"x_max":694,"o":"m 283 -379 q 69 -194 69 -379 l 69 178 l 178 213 q 368 92 221 92 q 581 361 581 92 q 368 631 581 631 q 178 510 221 631 l 69 544 q 368 722 135 722 q 694 361 694 722 q 368 0 694 0 q 183 40 257 0 l 183 -194 q 283 -287 183 -287 l 486 -287 q 581 -231 581 -287 q 486 -175 581 -175 l 400 -175 l 400 -83 l 486 -83 q 694 -231 694 -83 q 486 -379 694 -379 l 283 -379 z "},"ဦ":{"ha":764,"x_min":69,"x_max":694,"o":"m 283 -379 q 69 -194 69 -379 l 69 178 l 178 213 q 368 92 221 92 q 581 361 581 92 q 368 631 581 631 q 178 510 221 631 l 69 544 q 368 722 135 722 q 694 361 694 722 q 368 0 694 0 q 183 40 257 0 l 183 -194 q 283 -287 183 -287 l 486 -287 q 581 -231 581 -287 q 486 -175 581 -175 l 400 -175 l 400 -83 l 486 -83 q 694 -231 694 -83 q 486 -379 694 -379 l 283 -379 m 533 1021 l 533 1035 q 382 1186 533 1186 q 231 1035 231 1186 l 231 1019 q 382 1056 294 1056 q 533 1021 469 1056 m 257 935 q 382 883 294 883 q 507 935 469 883 q 382 974 460 974 q 257 935 304 974 m 382 1278 q 625 1035 625 1278 q 382 792 625 792 q 139 1035 139 792 q 382 1278 139 1278 z "},"ဧ":{"ha":764,"x_min":69,"x_max":694,"o":"m 454 486 q 574 535 526 486 q 396 631 522 631 q 253 582 306 631 q 383 496 289 519 q 454 486 421 486 m 574 188 q 454 236 526 236 q 383 226 421 236 q 253 140 289 203 q 396 92 306 92 q 574 188 522 92 m 183 361 q 197 239 183 290 q 361 315 256 289 q 474 331 422 331 q 694 217 617 331 q 396 0 636 0 q 69 361 69 0 q 396 722 69 722 q 694 506 636 722 q 474 392 617 392 q 361 407 422 392 q 197 483 256 433 q 183 361 183 432 z "},"ဨ":{"ha":764,"x_min":69,"x_max":694,"o":"m 681 -154 q 382 -379 628 -379 q 69 -18 69 -379 l 69 361 q 382 722 69 722 q 694 361 694 722 l 694 264 q 507 0 694 0 q 319 139 319 0 q 388 278 319 246 q 429 354 429 297 q 382 401 429 401 q 335 354 335 401 l 243 354 q 382 493 243 493 q 521 354 521 493 q 444 203 521 239 q 411 139 411 188 q 507 92 411 92 q 581 264 581 92 l 581 361 q 382 631 581 631 q 183 361 183 631 l 183 -18 q 382 -287 183 -287 q 571 -124 538 -287 l 681 -154 z "},"ဩ":{"ha":1479,"x_min":69,"x_max":1410,"o":"m 1043 3 q 865 86 929 17 q 622 0 788 0 q 324 178 389 0 l 432 213 q 622 92 475 92 q 833 361 833 92 q 621 631 833 631 q 431 510 474 631 l 322 544 q 621 722 388 722 q 947 361 947 722 q 926 197 947 267 q 1097 92 974 92 q 1296 361 1296 92 q 1097 631 1296 631 l 1097 722 q 1410 361 1410 722 q 1157 4 1410 36 l 1157 -194 q 944 -379 1157 -379 l 283 -379 q 69 -194 69 -379 l 69 1056 q 283 1240 69 1240 l 1157 1240 l 1157 1149 l 283 1149 q 183 1056 183 1149 l 183 -194 q 283 -287 183 -287 l 944 -287 q 1043 -194 1043 -287 l 1043 3 z "},"ဪ":{"ha":2706,"x_min":69,"x_max":2636,"o":"m 361 315 q 474 331 422 331 q 694 217 617 331 q 396 0 636 0 q 69 361 69 0 q 396 722 69 722 q 694 544 629 722 l 586 510 q 396 631 543 631 q 183 361 183 631 q 197 239 183 290 q 361 315 256 289 m 454 236 q 383 226 421 236 q 253 140 289 203 q 396 92 306 92 q 574 188 522 92 q 454 236 526 236 m 1807 3 q 1629 86 1693 17 q 1386 0 1551 0 q 1088 178 1153 0 l 1196 213 q 1386 92 1239 92 q 1597 361 1597 92 q 1385 631 1597 631 q 1194 510 1238 631 l 1086 544 q 1385 722 1151 722 q 1711 361 1711 722 q 1690 197 1711 267 q 1861 92 1738 92 q 2060 361 2060 92 q 1861 631 2060 631 l 1861 722 q 2092 636 2014 722 q 2324 722 2171 722 q 2636 361 2636 722 q 2324 0 2636 0 l 2324 92 q 2522 361 2522 92 q 2324 631 2522 631 q 2153 525 2200 631 q 2174 361 2174 456 q 1921 4 2174 36 l 1921 -194 q 1708 -379 1921 -379 l 1047 -379 q 833 -194 833 -379 l 833 1056 q 1047 1240 833 1240 l 1990 1240 l 1990 1149 l 1047 1149 q 947 1056 947 1149 l 947 -194 q 1047 -287 947 -287 l 1708 -287 q 1807 -194 1807 -287 l 1807 3 m 2465 1110 q 2326 1186 2433 1186 q 2175 1035 2175 1186 q 2326 883 2175 883 l 2326 792 q 2083 1035 2083 792 q 2326 1278 2083 1278 q 2551 1149 2504 1278 l 2465 1110 z "},"ါ":{"ha":253,"x_min":-303,"x_max":183,"o":"m 183 0 l 69 0 l 69 931 q -60 1082 69 1082 q -211 931 -211 1082 l -303 931 q -60 1174 -303 1174 q 183 931 183 1174 l 183 0 z "},"ာ":{"ha":463,"x_min":-151,"x_max":393,"o":"m -90 525 l -151 636 q 81 722 -72 722 q 393 361 393 722 q 81 0 393 0 l 81 92 q 279 361 279 92 q 81 631 279 631 q -90 525 -43 631 z "},"ိ":{"ha":0,"x_min":-625,"x_max":-139,"o":"m -382 1278 q -139 1035 -139 1278 q -382 792 -139 792 q -625 1035 -625 792 q -382 1278 -625 1278 m -231 1035 q -382 1186 -231 1186 q -533 1035 -533 1186 q -382 883 -533 883 q -231 1035 -231 883 z "},"ီ":{"ha":0,"x_min":-625,"x_max":-139,"o":"m -231 1021 l -231 1035 q -382 1186 -231 1186 q -533 1035 -533 1186 l -533 1019 q -382 1056 -469 1056 q -231 1021 -294 1056 m -507 935 q -382 883 -469 883 q -257 935 -294 883 q -382 974 -304 974 q -507 935 -460 974 m -382 1278 q -139 1035 -139 1278 q -382 792 -139 792 q -625 1035 -625 792 q -382 1278 -625 1278 z "},"ု":{"ha":0,"x_min":-439,"x_max":-228,"o":"m -325 -42 l -325 -287 l -228 -287 l -228 -379 l -439 -379 l -439 -42 l -325 -42 z "},"ူ":{"ha":0,"x_min":-529,"x_max":-137,"o":"m -529 -42 l -415 -42 l -415 -379 l -529 -379 l -529 -42 m -235 -287 l -137 -287 l -137 -379 l -349 -379 l -349 -42 l -235 -42 l -235 -287 z "},"ေ":{"ha":764,"x_min":69,"x_max":694,"o":"m 197 239 q 361 315 256 289 q 474 331 422 331 q 694 217 617 331 q 396 0 636 0 q 69 361 69 0 q 396 722 69 722 q 694 544 629 722 l 586 510 q 396 631 543 631 q 183 361 183 631 q 197 239 183 290 m 574 188 q 454 236 526 236 q 383 226 421 236 q 253 140 289 203 q 396 92 306 92 q 574 188 522 92 z "},"ဲ":{"ha":0,"x_min":-625,"x_max":-139,"o":"m -560 1278 l -139 857 l -204 792 l -625 1211 l -560 1278 z "},"ဳ":{"ha":0,"x_min":-625,"x_max":-139,"o":"m -382 1139 q -278 1035 -278 1139 q -382 931 -278 931 q -486 1035 -486 931 q -382 1139 -486 1139 m -347 1035 q -382 1069 -347 1069 q -417 1035 -417 1069 q -382 1000 -417 1000 q -347 1035 -347 1000 m -382 1278 q -139 1035 -139 1278 q -382 792 -139 792 q -625 1035 -625 792 q -382 1278 -625 1278 m -222 1035 q -382 1194 -222 1194 q -542 1035 -542 1194 q -382 875 -542 875 q -222 1035 -222 875 z "},"ဴ":{"ha":0,"x_min":-625,"x_max":-139,"o":"m -139 1211 l -560 792 l -625 857 l -204 1278 l -139 1211 z "},"ဵ":{"ha":0,"x_min":-625,"x_max":-139,"o":"m -139 1019 q -382 792 -146 792 q -625 1035 -625 792 q -382 1278 -625 1278 q -187 1204 -249 1278 l -269 1150 q -382 1186 -307 1186 q -533 1035 -533 1186 q -514 946 -533 981 q -296 1058 -461 1058 q -154 1028 -210 1058 l -139 1019 m -435 889 q -382 883 -411 883 q -243 961 -274 883 q -296 967 -267 967 q -435 889 -404 967 z "},"ံ":{"ha":0,"x_min":-508,"x_max":-256,"o":"m -382 1017 q -256 890 -256 1017 q -382 764 -256 764 q -508 890 -508 764 q -382 1017 -508 1017 m -340 890 q -382 932 -340 932 q -424 890 -424 932 q -382 849 -424 849 q -340 890 -340 849 z "},"့":{"ha":0,"x_min":-508,"x_max":-256,"o":"m -382 -42 q -256 -168 -256 -42 q -382 -294 -256 -294 q -508 -168 -508 -294 q -382 -42 -508 -42 m -340 -168 q -382 -126 -340 -126 q -424 -168 -424 -126 q -382 -210 -424 -210 q -340 -168 -340 -210 z "},"း":{"ha":392,"x_min":69,"x_max":322,"o":"m 196 694 q 322 568 322 694 q 196 442 322 442 q 69 568 69 442 q 196 694 69 694 m 238 568 q 196 610 238 610 q 154 568 154 610 q 196 526 154 526 q 238 568 238 526 m 196 281 q 322 154 322 281 q 196 28 322 28 q 69 154 69 28 q 196 281 69 281 m 238 154 q 196 196 238 196 q 154 154 154 196 q 196 113 154 113 q 238 154 238 113 z "},"္":{"ha":0,"x_min":-542,"x_max":-222,"o":"m -428 -233 l -542 -233 l -542 -142 l -428 -142 l -428 -28 l -336 -28 l -336 -142 l -222 -142 l -222 -233 l -336 -233 l -336 -347 l -428 -347 l -428 -233 z "},"်":{"ha":0,"x_min":-537,"x_max":-69,"o":"m -156 1110 q -294 1186 -187 1186 q -446 1035 -446 1186 q -294 883 -446 883 l -294 792 q -537 1035 -537 792 q -294 1278 -537 1278 q -69 1149 -117 1278 l -156 1110 z "},"ျ":{"ha":253,"x_min":-253,"x_max":183,"o":"m -253 -250 l -253 -42 l -139 -42 l -139 -196 l 69 -276 l 69 722 l 183 722 l 183 -379 l 76 -379 l -253 -250 z "},"ြ":{"ha":253,"x_min":69,"x_max":947,"o":"m 283 -379 q 69 -194 69 -379 l 69 1056 q 283 1240 69 1240 l 735 1240 q 947 1056 947 1240 l 947 903 l 833 903 l 833 1056 q 735 1149 833 1149 l 283 1149 q 183 1056 183 1149 l 183 -194 q 283 -287 183 -287 l 735 -287 q 833 -194 833 -287 l 833 139 l 947 139 l 947 -194 q 735 -379 947 -379 l 283 -379 z "},"ွ":{"ha":0,"x_min":-582,"x_max":-179,"o":"m -179 -206 q -381 -379 -179 -379 q -582 -206 -582 -379 q -381 -32 -582 -32 q -179 -206 -179 -32 m -506 -206 q -381 -303 -506 -303 q -256 -206 -256 -303 q -381 -108 -256 -108 q -506 -206 -506 -108 z "},"ှ":{"ha":0,"x_min":-536,"x_max":-325,"o":"m -325 -379 l -536 -379 l -536 -287 l -439 -287 l -439 -42 l -325 -42 l -325 -379 z "},"ဿ":{"ha":1689,"x_min":69,"x_max":1619,"o":"m 1043 361 q 844 631 1043 631 l 844 722 q 1157 361 1157 722 q 1136 197 1157 267 q 1307 92 1183 92 q 1506 361 1506 92 q 1307 631 1506 631 l 1307 722 q 1619 361 1619 722 q 1307 0 1619 0 q 1075 86 1154 0 q 844 0 997 0 q 613 86 692 0 q 369 0 535 0 q 71 178 136 0 l 179 213 q 369 92 222 92 q 581 361 581 92 q 368 631 581 631 q 178 510 221 631 l 69 544 q 368 722 135 722 q 694 361 694 722 q 674 197 694 267 q 844 92 721 92 q 1043 361 1043 92 z "},"၀":{"ha":764,"x_min":69,"x_max":694,"o":"m 382 631 q 183 361 183 631 q 382 92 183 92 q 581 361 581 92 q 382 631 581 631 m 382 722 q 694 361 694 722 q 382 0 694 0 q 69 361 69 0 q 382 722 69 722 z "},"၁":{"ha":764,"x_min":69,"x_max":694,"o":"m 694 361 q 368 0 694 0 q 69 178 135 0 l 178 213 q 368 92 221 92 q 581 361 581 92 q 368 631 581 631 q 178 510 221 631 l 69 544 q 368 722 135 722 q 694 361 694 722 z "},"၂":{"ha":569,"x_min":14,"x_max":500,"o":"m 500 -69 q 257 -312 500 -312 q 14 -69 14 -312 l 106 -69 q 257 -221 106 -221 q 386 -69 386 -221 l 386 722 l 500 722 l 500 -69 z "},"၃":{"ha":764,"x_min":69,"x_max":694,"o":"m 165 51 q 69 178 100 96 l 178 213 q 368 92 221 92 q 581 361 581 92 q 368 631 581 631 q 178 510 221 631 l 69 544 q 368 722 135 722 q 694 361 694 722 q 368 0 694 0 q 324 1 346 0 l 589 -321 l 518 -379 l 165 51 z "},"၄":{"ha":764,"x_min":69,"x_max":694,"o":"m 246 -379 l 175 -321 l 440 1 q 396 0 418 0 q 69 361 69 0 q 396 722 69 722 q 694 544 629 722 l 586 510 q 396 631 543 631 q 183 361 183 631 q 396 92 183 92 q 586 213 543 92 l 694 178 q 599 51 664 96 l 246 -379 z "},"၅":{"ha":764,"x_min":69,"x_max":694,"o":"m 69 444 q 382 722 69 722 q 694 361 694 722 l 694 -18 q 382 -379 694 -379 q 83 -154 136 -379 l 193 -124 q 382 -287 226 -287 q 581 -18 581 -287 l 581 361 q 382 631 581 631 q 221 571 269 631 l 224 571 q 350 444 350 571 q 224 318 350 318 q 69 444 69 318 m 265 444 q 224 486 265 486 q 182 444 182 486 q 224 403 182 403 q 265 444 265 403 z "},"၆":{"ha":764,"x_min":69,"x_max":694,"o":"m 681 876 l 571 846 q 382 1010 538 1010 q 183 740 183 1010 l 183 361 q 382 92 183 92 q 581 361 581 92 q 457 449 581 417 q 333 583 333 482 q 472 722 333 722 q 611 583 611 722 l 519 583 q 472 631 519 631 q 425 583 425 631 q 560 508 425 540 q 694 361 694 475 q 382 0 694 0 q 69 361 69 0 l 69 740 q 382 1101 69 1101 q 681 876 628 1101 z "},"၇":{"ha":764,"x_min":69,"x_max":694,"o":"m 350 96 q 581 417 581 246 q 382 631 581 631 q 183 375 183 631 q 213 186 183 253 l 111 136 q 69 375 69 224 q 382 722 69 722 q 694 417 694 722 q 413 0 694 183 q 294 -192 294 -76 q 382 -287 294 -287 q 469 -192 469 -287 l 583 -192 q 382 -379 583 -379 q 181 -192 181 -379 q 350 96 181 -15 z "},"၈":{"ha":764,"x_min":69,"x_max":694,"o":"m 271 0 q 69 361 69 58 q 382 722 69 722 q 694 361 694 722 q 493 0 694 58 l 456 89 q 581 361 581 133 q 382 631 581 631 q 206 511 250 631 q 306 443 261 490 q 383 247 383 363 q 271 0 383 106 m 250 126 q 292 247 292 178 q 240 379 292 325 q 186 419 215 406 q 183 361 183 392 q 250 126 183 194 z "},"၉":{"ha":764,"x_min":69,"x_max":694,"o":"m 681 -154 q 382 -379 628 -379 q 69 -18 69 -379 l 69 361 q 382 722 69 722 q 694 361 694 722 q 560 215 694 247 q 425 139 425 182 q 472 92 425 92 q 519 139 519 92 l 611 139 q 472 0 611 0 q 333 139 333 0 q 457 273 333 240 q 581 361 581 306 q 382 631 581 631 q 183 361 183 631 l 183 -18 q 382 -287 183 -287 q 571 -124 538 -287 l 681 -154 z "},"၊":{"ha":253,"x_min":69,"x_max":183,"o":"m 183 722 l 183 0 l 69 0 l 69 722 l 183 722 z "},"။":{"ha":461,"x_min":69,"x_max":392,"o":"m 392 722 l 392 0 l 278 0 l 278 722 l 392 722 m 183 722 l 183 0 l 69 0 l 69 722 l 183 722 z "},"၌":{"ha":764,"x_min":69,"x_max":694,"o":"m 511 -287 q 581 -236 581 -287 l 581 -121 q 382 -153 496 -153 q 69 -54 182 -153 l 69 178 l 178 213 q 368 92 221 92 q 581 361 581 92 q 368 631 581 631 q 178 510 221 631 l 69 544 q 368 722 135 722 q 694 361 694 722 q 368 0 694 0 q 183 40 257 0 l 183 -26 q 382 -69 264 -69 q 601 0 517 -69 l 694 -42 l 694 -236 q 511 -379 694 -379 l 240 -379 q 69 -236 69 -379 l 69 -181 l 183 -181 l 183 -236 q 240 -287 183 -287 l 511 -287 m 581 1110 q 442 1186 549 1186 q 290 1035 290 1186 q 442 883 290 883 l 442 792 q 199 1035 199 792 q 442 1278 199 1278 q 667 1149 619 1278 l 581 1110 z "},"၍":{"ha":993,"x_min":69,"x_max":993,"o":"m 324 99 q 336 181 336 143 q 322 250 336 219 q 222 351 292 322 q 183 364 203 360 l 183 361 q 324 99 183 135 m 382 0 q 69 361 69 0 q 382 722 69 722 q 694 361 694 722 l 694 -204 l 581 -204 l 581 361 q 382 631 581 631 q 190 456 222 631 q 257 436 224 450 q 406 288 360 393 q 429 175 429 233 q 382 0 429 92 m 924 -194 q 710 -379 924 -379 l 278 -379 q 69 -231 69 -379 q 278 -83 69 -83 l 364 -83 l 364 -175 l 278 -175 q 183 -231 183 -175 q 278 -287 183 -287 l 710 -287 q 810 -194 810 -287 l 810 417 q 610 736 810 640 q 408 1047 408 833 q 721 1360 408 1360 q 993 1206 933 1360 l 919 1164 q 721 1268 872 1268 q 500 1047 500 1268 q 649 819 500 890 q 924 417 924 688 l 924 -194 z "},"၎":{"ha":764,"x_min":69,"x_max":694,"o":"m 581 40 q 396 0 507 0 q 69 361 69 0 q 396 722 69 722 q 694 544 629 722 l 586 510 q 396 631 543 631 q 183 361 183 631 q 396 92 183 92 q 586 213 543 92 l 694 178 l 694 -379 l 581 -379 l 581 40 z "},"၏":{"ha":1215,"x_min":69,"x_max":1215,"o":"m 1032 479 q 832 778 1032 682 q 631 1047 631 875 q 943 1360 631 1360 q 1215 1206 1156 1360 l 1142 1164 q 943 1268 1094 1268 q 722 1047 722 1268 q 871 861 722 932 q 1146 479 1146 729 l 1146 0 l 1032 0 l 1032 479 m 574 535 q 396 631 522 631 q 253 582 306 631 q 383 496 289 519 q 454 486 421 486 q 574 535 526 486 m 454 236 q 383 226 421 236 q 253 140 289 203 q 396 92 306 92 q 574 188 522 92 q 454 236 526 236 m 581 675 q 718 722 629 722 q 919 479 919 722 l 919 0 l 806 0 l 806 479 q 707 631 806 631 q 647 610 671 631 q 694 506 678 567 q 474 392 617 392 q 361 407 422 392 q 197 483 256 433 q 183 361 183 432 q 197 239 183 290 q 361 315 256 289 q 474 331 422 331 q 694 217 617 331 q 396 0 636 0 q 69 361 69 0 q 396 722 69 722 q 581 675 507 722 z "},"ၐ":{"ha":764,"x_min":69,"x_max":694,"o":"m 382 722 q 694 361 694 722 q 493 0 694 58 l 456 89 q 581 361 581 133 q 382 631 581 631 q 183 361 183 631 q 308 89 183 133 l 271 0 q 69 361 69 58 q 382 722 69 722 m 382 431 q 451 361 451 431 q 382 292 451 292 q 313 361 313 292 q 382 431 313 431 z "},"ၑ":{"ha":764,"x_min":69,"x_max":694,"o":"m 382 0 q 69 361 69 0 q 271 722 69 664 l 308 633 q 183 361 183 589 q 382 92 183 92 q 581 361 581 92 q 456 633 581 589 l 493 722 q 694 361 694 664 q 382 0 694 0 m 382 292 q 313 361 313 292 q 382 431 313 431 q 451 361 451 431 q 382 292 451 292 z "},"ၒ":{"ha":764,"x_min":69,"x_max":694,"o":"m 581 361 q 507 436 581 408 q 394 567 394 481 q 407 629 394 596 q 525 722 442 722 q 607 704 561 722 l 694 668 l 660 585 l 572 618 q 533 628 550 628 q 492 596 503 628 q 489 578 489 586 q 540 524 489 543 q 694 361 694 469 q 382 0 694 0 q 69 361 69 0 q 271 722 69 664 l 308 633 q 183 361 183 589 q 382 92 183 92 q 581 361 581 92 z "},"ၓ":{"ha":764,"x_min":69,"x_max":694,"o":"m 581 361 q 535 436 581 418 q 422 567 422 481 q 435 629 422 596 q 553 722 469 722 q 635 704 589 722 l 694 679 l 661 594 l 600 618 q 561 628 578 628 q 519 596 531 628 q 517 578 517 586 q 568 524 517 543 q 694 361 694 475 q 382 0 694 0 q 69 361 69 0 q 196 524 69 475 q 247 578 247 543 q 244 596 247 586 q 203 628 233 628 q 164 618 186 628 l 103 594 l 69 679 l 129 704 q 211 722 175 722 q 329 629 294 722 q 342 567 342 596 q 229 436 342 481 q 183 361 183 418 q 382 92 183 92 q 581 361 581 92 z "},"ၔ":{"ha":764,"x_min":69,"x_max":694,"o":"m 197 483 q 183 361 183 432 q 396 92 183 92 q 586 213 543 92 l 694 178 q 396 0 629 0 q 69 361 69 0 q 396 722 69 722 q 694 506 636 722 q 474 392 617 392 q 361 407 422 392 q 197 483 256 433 m 574 535 q 396 631 522 631 q 253 582 306 631 q 383 496 289 519 q 454 486 421 486 q 574 535 526 486 z "},"ၕ":{"ha":764,"x_min":69,"x_max":694,"o":"m 574 535 q 396 631 522 631 q 253 582 306 631 q 383 496 289 519 q 454 486 421 486 q 574 535 526 486 m 69 361 q 396 722 69 722 q 694 506 636 722 q 474 392 617 392 q 361 407 422 392 q 197 483 256 433 q 183 361 183 432 q 278 92 183 92 q 364 250 344 92 l 461 250 q 517 92 461 92 q 586 268 571 92 l 694 247 q 517 0 657 0 q 404 68 443 0 q 278 0 357 0 q 69 361 69 0 z "},"ၖ":{"ha":511,"x_min":-183,"x_max":442,"o":"m 328 361 q 254 436 328 408 q 142 567 142 481 q 154 629 142 596 q 272 722 189 722 q 354 704 308 722 l 442 668 l 407 585 l 319 618 q 281 628 297 628 q 239 596 250 628 q 236 578 236 586 q 288 524 236 543 q 442 361 442 469 q 129 0 442 0 q -183 361 -183 0 l -69 361 q 129 92 -69 92 q 328 361 328 92 z "},"ၗ":{"ha":511,"x_min":-183,"x_max":442,"o":"m 328 361 q 254 436 328 408 q 142 567 142 481 q 154 629 142 596 q 272 722 189 722 q 354 704 308 722 l 442 668 l 407 585 l 319 618 q 281 628 297 628 q 239 596 250 628 q 236 578 236 586 q 288 524 236 543 q 442 361 442 469 q 233 0 442 0 q 107 68 154 0 q -6 0 68 0 q -183 247 -146 0 l -75 268 q -6 92 -60 92 q 50 250 50 92 l 147 250 q 233 92 167 92 q 328 361 328 92 z "},"ၘ":{"ha":0,"x_min":-621,"x_max":-142,"o":"m -142 -151 q -349 -222 -219 -222 q -519 -171 -465 -222 q -524 -206 -524 -186 q -378 -310 -524 -310 q -212 -249 -267 -310 l -156 -293 q -378 -379 -207 -379 q -621 -206 -621 -379 q -378 -32 -621 -32 q -142 -151 -176 -32 m -461 -114 q -349 -167 -429 -167 q -260 -133 -292 -167 q -378 -101 -296 -101 q -461 -114 -428 -101 z "},"ၙ":{"ha":0,"x_min":-621,"x_max":-142,"o":"m -461 -114 q -349 -167 -429 -167 q -260 -133 -292 -167 q -378 -101 -296 -101 q -461 -114 -428 -101 m -621 -206 q -378 -32 -621 -32 q -142 -151 -176 -32 q -349 -222 -219 -222 q -519 -171 -465 -222 q -524 -206 -524 -186 q -447 -310 -524 -310 q -393 -261 -419 -310 l -329 -261 q -267 -310 -315 -310 q -199 -249 -211 -310 l -142 -265 q -267 -379 -151 -379 q -357 -325 -328 -379 q -447 -379 -387 -379 q -621 -206 -621 -379 z "},"ၚ":{"ha":764,"x_min":69,"x_max":694,"o":"m 69 361 q 396 722 69 722 q 694 544 629 722 l 586 510 q 396 631 543 631 q 183 361 183 631 q 396 92 183 92 q 586 213 543 92 l 694 178 q 396 0 629 0 q 69 361 69 0 m 360 -186 q 394 -166 360 -186 q 428 -128 428 -146 q 382 -104 428 -104 q 336 -128 336 -104 l 222 -128 q 382 -19 222 -19 q 542 -128 542 -19 q 474 -220 542 -182 q 406 -278 406 -258 q 451 -301 406 -301 l 497 -301 l 497 -379 l 451 -379 q 292 -278 292 -379 q 360 -186 292 -226 z "},"ၛ":{"ha":1017,"x_min":69,"x_max":947,"o":"m 561 536 q 514 489 514 536 q 561 442 514 442 q 608 489 608 442 q 561 536 608 536 m 496 10 l 496 -208 q 581 -287 496 -287 l 750 -287 q 833 -208 833 -287 l 833 269 q 735 246 783 246 q 546 350 631 246 q 422 489 422 358 q 489 615 422 585 q 396 631 449 631 q 183 361 183 631 q 396 92 183 92 q 564 167 513 92 l 660 111 q 496 10 604 33 m 382 0 q 69 361 69 8 q 396 722 69 722 q 694 544 629 722 q 700 489 700 519 q 640 367 700 399 q 732 328 682 328 q 833 353 782 328 l 833 722 l 947 722 l 947 -208 q 750 -379 947 -379 l 581 -379 q 382 -208 382 -379 l 382 0 z "},"ၜ":{"ha":764,"x_min":69,"x_max":694,"o":"m 382 485 q 329 361 329 485 q 382 238 329 238 q 435 361 435 238 q 382 485 435 485 m 382 722 q 694 361 694 722 q 382 0 694 0 q 69 361 69 0 q 382 722 69 722 m 382 631 q 183 361 183 631 q 382 92 183 92 q 581 361 581 92 q 382 631 581 631 m 382 561 q 511 361 511 561 q 382 161 511 161 q 253 361 253 161 q 382 561 253 561 z "},"ၝ":{"ha":764,"x_min":69,"x_max":694,"o":"m 219 181 q 382 92 268 92 q 544 181 496 92 q 382 269 496 269 q 219 181 268 269 m 458 6 q 382 0 422 0 q 69 361 69 0 q 271 722 69 664 l 308 633 q 183 361 183 589 q 186 306 183 332 q 382 361 260 361 q 578 307 504 361 q 581 361 581 332 q 456 633 581 589 l 493 722 q 694 361 694 664 q 554 39 694 119 q 597 -94 597 -4 l 597 -206 q 354 -379 597 -379 q 111 -226 111 -379 q 271 -74 111 -74 q 431 -206 431 -74 l 347 -206 q 278 -143 347 -143 q 208 -226 208 -143 q 354 -310 208 -310 q 500 -206 500 -310 l 500 -94 q 458 6 500 -10 z "},"ၞ":{"ha":0,"x_min":-625,"x_max":42,"o":"m -340 -74 l -292 -74 l -292 0 l -194 0 l -194 -81 q 42 -192 10 -101 l -28 -219 q -194 -151 -65 -168 l -194 -178 q -410 -379 -194 -379 q -625 -226 -625 -379 q -340 -74 -625 -74 m -292 -144 q -340 -143 -315 -143 q -528 -226 -528 -143 q -410 -310 -528 -310 q -292 -178 -292 -310 l -292 -144 z "},"ၟ":{"ha":0,"x_min":-597,"x_max":-167,"o":"m -382 -143 q -500 -226 -500 -143 q -382 -310 -500 -310 q -264 -219 -264 -310 l -167 -219 q -382 -379 -167 -379 q -597 -226 -597 -379 q -439 -76 -597 -96 l -439 0 l -325 0 l -325 -143 l -382 -143 z "},"ၠ":{"ha":0,"x_min":-610,"x_max":-154,"o":"m -442 -287 l -154 -287 l -154 -379 l -583 -379 l -610 -296 l -324 -10 l -240 -87 l -442 -287 z "},"ၡ":{"ha":764,"x_min":69,"x_max":694,"o":"m 324 99 q 336 181 336 143 q 322 250 336 219 q 222 351 292 322 q 183 364 203 360 l 183 361 q 324 99 183 135 m 315 4 q 69 361 69 40 q 382 722 69 722 q 694 361 694 722 l 694 -379 l 581 -379 l 581 361 q 382 631 581 631 q 190 456 222 631 q 257 436 224 450 q 406 288 360 393 q 429 175 429 233 l 429 -379 l 176 -379 l 176 -287 l 315 -287 l 315 4 z "},"ၢ":{"ha":253,"x_min":-60,"x_max":183,"o":"m 183 0 l 69 0 l 69 631 l -60 631 l -60 722 l 183 722 l 183 0 z "},"ၣ":{"ha":764,"x_min":69,"x_max":694,"o":"m 183 -379 l 69 -379 l 69 178 l 178 213 q 368 92 221 92 q 581 361 581 92 q 368 631 581 631 q 178 510 221 631 l 69 544 q 368 722 135 722 q 694 361 694 722 q 368 0 694 0 q 183 40 257 0 l 183 -379 z "},"ၤ":{"ha":253,"x_min":-60,"x_max":313,"o":"m 183 92 l 313 92 l 313 0 l 69 0 l 69 631 l -60 631 l -60 722 l 183 722 l 183 92 z "},"ၥ":{"ha":764,"x_min":69,"x_max":694,"o":"m 694 361 q 368 0 694 0 q 69 178 135 0 l 178 213 q 368 92 221 92 q 581 361 581 92 q 368 631 581 631 q 178 510 221 631 l 69 544 q 368 722 135 722 q 694 361 694 722 z "},"ၦ":{"ha":764,"x_min":69,"x_max":694,"o":"m 464 7 q 382 0 426 0 q 69 361 69 0 q 271 722 69 664 l 308 633 q 183 361 183 589 q 382 92 183 92 q 581 361 581 92 q 456 633 581 589 l 493 722 q 694 361 694 664 q 578 54 694 140 l 578 -379 l 325 -379 l 325 -287 l 464 -287 l 464 7 z "},"ၧ":{"ha":253,"x_min":-69,"x_max":183,"o":"m 99 126 q 57 168 99 168 q 15 126 15 168 q 57 85 15 85 q 99 126 99 85 m 69 253 l 69 722 l 183 722 l 183 126 q 57 0 183 0 q -69 126 -69 0 q 57 253 -69 253 l 69 253 z "},"ၨ":{"ha":253,"x_min":-60,"x_max":253,"o":"m 183 0 l -60 0 l -60 92 l 69 92 l 69 722 l 183 722 l 183 0 m 126 1044 q 253 918 253 1044 q 126 792 253 792 q 0 918 0 792 q 126 1044 0 1044 m 168 918 q 126 960 168 960 q 85 918 85 960 q 126 876 85 876 q 168 918 168 876 z "},"ၩ":{"ha":433,"x_min":69,"x_max":364,"o":"m 244 324 q 183 185 183 278 q 274 92 183 92 l 364 92 l 364 0 l 274 0 q 69 185 69 0 q 189 397 69 308 q 250 536 250 443 q 160 631 250 631 l 69 631 l 69 722 l 160 722 q 364 536 364 722 q 244 324 364 413 z "},"ၪ":{"ha":253,"x_min":-206,"x_max":183,"o":"m 183 201 q -11 0 183 0 q -206 201 -206 0 l -114 201 q -22 92 -114 92 q 69 201 69 92 l 69 722 l 183 722 l 183 201 z "},"ၫ":{"ha":253,"x_min":-206,"x_max":183,"o":"m 183 0 l 69 0 l 69 521 q -22 631 69 631 q -114 521 -114 631 l -206 521 q -11 722 -206 722 q 183 521 183 722 l 183 0 z "},"ၬ":{"ha":253,"x_min":69,"x_max":458,"o":"m 69 722 l 183 722 l 183 201 q 275 92 183 92 q 367 201 367 92 l 458 201 q 264 0 458 0 q 69 201 69 0 l 69 722 z "},"ၭ":{"ha":433,"x_min":69,"x_max":364,"o":"m 189 324 q 69 536 69 413 q 274 722 69 722 l 364 722 l 364 631 l 274 631 q 183 536 183 631 q 244 397 183 443 q 364 185 364 308 q 160 0 364 0 l 69 0 l 69 92 l 160 92 q 250 185 250 92 q 189 324 250 278 z "},"ၮ":{"ha":1463,"x_min":69,"x_max":1393,"o":"m 500 706 q 618 722 551 722 q 849 636 771 722 q 1081 722 928 722 q 1393 361 1393 722 q 1081 0 1393 0 l 1081 92 q 1279 361 1279 92 q 1081 631 1279 631 q 910 525 957 631 q 931 361 931 456 q 729 0 931 58 l 692 89 q 817 361 817 133 q 618 631 817 631 q 694 361 694 540 q 493 0 694 58 l 456 89 q 581 361 581 133 q 382 631 581 631 q 183 361 183 631 q 308 89 183 133 l 271 0 q 69 361 69 58 q 382 722 69 722 q 500 706 449 722 z "},"ၯ":{"ha":1226,"x_min":69,"x_max":1157,"o":"m 964 17 q 844 0 911 0 l 844 92 q 1043 361 1043 92 q 844 631 1043 631 q 675 528 722 631 q 694 361 694 456 q 382 0 694 0 q 69 361 69 0 q 271 722 69 664 l 308 633 q 183 361 183 589 q 382 92 183 92 q 581 361 581 92 q 456 633 581 589 l 493 722 q 618 642 571 700 q 844 722 697 722 q 1157 361 1157 722 q 1078 89 1157 179 l 1078 -379 l 825 -379 l 825 -287 l 964 -287 l 964 17 z "},"ၰ":{"ha":1226,"x_min":69,"x_max":1157,"o":"m 964 17 q 844 0 911 0 q 613 86 692 0 q 382 0 535 0 q 69 361 69 0 q 224 524 69 469 q 275 578 275 543 q 272 596 275 586 q 231 628 261 628 q 192 618 214 628 l 104 585 l 69 668 l 157 704 q 239 722 203 722 q 357 629 322 722 q 369 567 369 596 q 257 436 369 481 q 183 361 183 408 q 382 92 183 92 q 581 361 581 92 q 456 633 581 589 l 493 722 q 694 361 694 664 q 674 197 694 267 q 844 92 721 92 q 1043 361 1043 92 q 844 631 1043 631 l 844 722 q 1157 361 1157 722 q 1078 89 1157 179 l 1078 -379 l 825 -379 l 825 -287 l 964 -287 l 964 17 z "},"ၱ":{"ha":0,"x_min":-668,"x_max":-96,"o":"m -222 1161 q -96 1035 -96 1161 q -222 908 -96 908 q -349 1035 -349 908 q -222 1161 -349 1161 m -181 1035 q -222 1076 -181 1076 q -264 1035 -264 1076 q -222 993 -264 993 q -181 1035 -181 993 m -542 1161 q -415 1035 -415 1161 q -542 908 -415 908 q -668 1035 -668 908 q -542 1161 -668 1161 m -500 1035 q -542 1076 -500 1076 q -583 1035 -583 1076 q -542 993 -583 993 q -500 1035 -500 993 z "},"ၲ":{"ha":0,"x_min":-619,"x_max":-144,"o":"m -528 1035 q -376 883 -528 883 q -233 974 -260 883 l -144 940 q -376 792 -186 792 q -619 1035 -619 792 q -376 1278 -619 1278 q -144 1129 -186 1278 l -233 1096 q -376 1186 -260 1186 q -528 1035 -528 1186 z "},"ၳ":{"ha":0,"x_min":-694,"x_max":-69,"o":"m -382 1169 l -69 857 l -135 792 l -382 1038 l -629 792 l -694 857 l -382 1169 z "},"ၴ":{"ha":0,"x_min":-625,"x_max":-139,"o":"m -382 883 q -231 1035 -231 883 q -324 1179 -231 1153 l -286 1267 q -139 1035 -139 1224 q -382 792 -139 792 q -625 1035 -625 792 q -478 1267 -625 1224 l -440 1179 q -533 1035 -533 1153 q -382 883 -533 883 z "},"ၵ":{"ha":764,"x_min":69,"x_max":694,"o":"m 183 361 q 257 286 183 314 q 369 156 369 242 q 357 93 369 126 q 239 0 322 0 q 157 18 203 0 l 69 54 l 104 138 l 192 104 q 231 94 214 94 q 272 126 261 94 q 275 144 275 136 q 224 199 275 179 q 69 361 69 253 q 382 722 69 722 q 694 361 694 722 q 493 0 694 58 l 456 89 q 581 361 581 133 q 382 631 581 631 q 183 361 183 631 z "},"ၶ":{"ha":764,"x_min":-81,"x_max":694,"o":"m 190 188 q 368 92 242 92 q 511 140 458 92 q 381 226 475 203 q 310 236 343 236 q 190 188 238 236 m 72 553 q 368 722 140 722 q 694 361 694 722 q 368 0 694 0 q 69 217 128 0 q 290 331 147 331 q 403 315 342 331 q 567 239 508 289 q 581 361 581 290 q 368 631 581 631 q 178 510 221 631 q 163 444 163 468 q -81 618 -81 444 l -81 722 l 33 722 l 33 618 q 72 553 33 572 z "},"ၷ":{"ha":764,"x_min":69,"x_max":694,"o":"m 581 361 q 578 419 581 392 q 521 365 549 406 q 493 247 493 325 q 514 126 493 178 q 581 361 581 194 m 382 722 q 694 361 694 722 q 493 0 694 58 q 408 247 408 106 q 456 426 408 363 q 558 511 503 490 q 382 631 514 631 q 183 361 183 631 q 229 286 183 304 q 342 156 342 242 q 329 93 342 126 q 211 0 294 0 q 129 18 175 0 l 69 43 l 103 128 l 164 104 q 203 94 186 94 q 244 126 233 94 q 247 144 247 136 q 196 199 247 179 q 69 361 69 247 q 382 722 69 722 z "},"ၸ":{"ha":1226,"x_min":69,"x_max":1157,"o":"m 1157 361 q 844 0 1157 0 q 532 361 532 0 q 553 525 532 456 q 382 631 506 631 q 183 361 183 631 q 382 92 183 92 l 382 0 q 69 361 69 0 q 382 722 69 722 q 614 636 535 722 q 844 722 692 722 q 1157 361 1157 722 m 646 361 q 844 92 646 92 q 1043 361 1043 92 q 844 631 1043 631 q 646 361 646 631 z "},"ၹ":{"ha":1226,"x_min":69,"x_max":1157,"o":"m 844 92 q 1043 361 1043 92 q 844 631 1043 631 q 646 361 646 631 q 844 92 646 92 m 250 126 q 292 247 292 178 q 240 379 292 325 q 186 419 215 406 q 183 361 183 392 q 250 126 183 194 m 382 722 q 614 636 535 722 q 844 722 692 722 q 1157 361 1157 722 q 844 0 1157 0 q 532 361 532 0 q 553 525 532 456 q 382 631 506 631 q 206 511 250 631 q 306 443 261 490 q 383 247 383 363 q 271 0 383 106 q 69 361 69 58 q 382 722 69 722 z "},"ၺ":{"ha":1275,"x_min":69,"x_max":1206,"o":"m 581 361 q 382 631 581 631 q 183 361 183 631 q 382 92 183 92 l 382 0 q 69 361 69 0 q 382 722 69 722 q 694 361 694 722 q 893 92 694 92 q 1092 361 1092 92 q 893 631 1092 631 l 893 722 q 1206 361 1206 722 q 893 0 1206 0 q 694 57 769 0 l 694 -287 l 824 -287 l 824 -379 l 581 -379 l 581 361 z "},"ၻ":{"ha":1226,"x_min":69,"x_max":1157,"o":"m 382 92 q 581 361 581 92 q 382 631 581 631 q 183 361 183 631 q 382 92 183 92 m 976 126 q 1043 361 1043 194 q 1040 419 1043 392 q 986 379 1011 406 q 935 247 935 325 q 976 126 935 178 m 844 722 q 1157 361 1157 722 q 956 0 1157 58 q 843 247 843 106 q 921 443 843 363 q 1021 511 965 490 q 844 631 976 631 q 674 525 721 631 q 694 361 694 456 q 382 0 694 0 q 69 361 69 0 q 382 722 69 722 q 613 636 535 722 q 844 722 692 722 z "},"ၼ":{"ha":1275,"x_min":69,"x_max":1206,"o":"m 965 236 q 894 226 932 236 q 764 140 800 203 q 907 92 817 92 q 1085 188 1033 92 q 965 236 1038 236 m 190 188 q 368 92 242 92 q 511 140 458 92 q 381 226 475 203 q 310 236 343 236 q 190 188 238 236 m 694 361 q 708 239 694 290 q 872 315 767 289 q 985 331 933 331 q 1206 217 1128 331 q 907 0 1147 0 q 638 122 717 0 q 368 0 558 0 q 69 217 128 0 q 290 331 147 331 q 403 315 342 331 q 567 239 508 289 q 581 361 581 290 q 368 631 581 631 q 178 510 221 631 l 69 544 q 368 722 135 722 q 638 600 558 722 q 907 722 717 722 q 1206 544 1140 722 l 1097 510 q 907 631 1054 631 q 694 361 694 631 z "},"ၽ":{"ha":1275,"x_min":69,"x_max":1206,"o":"m 965 236 q 894 226 932 236 q 764 140 800 203 q 907 92 817 92 q 1085 188 1033 92 q 965 236 1038 236 m 694 361 q 708 239 694 290 q 872 315 767 289 q 985 331 933 331 q 1206 217 1128 331 q 907 0 1147 0 q 639 121 718 0 q 382 0 563 0 q 69 361 69 0 q 224 524 69 469 q 275 578 275 543 q 272 596 275 586 q 231 628 261 628 q 192 618 214 628 l 104 585 l 69 668 l 157 704 q 239 722 203 722 q 357 629 322 722 q 369 567 369 596 q 257 436 369 481 q 183 361 183 408 q 382 92 183 92 q 581 361 581 92 q 907 722 581 722 q 1206 544 1140 722 l 1097 510 q 907 631 1054 631 q 694 361 694 631 z "},"ၾ":{"ha":1275,"x_min":69,"x_max":1206,"o":"m 965 236 q 894 226 932 236 q 764 140 800 203 q 907 92 817 92 q 1085 188 1033 92 q 965 236 1038 236 m 850 3 q 639 121 706 19 q 382 0 563 0 q 69 361 69 0 q 224 524 69 469 q 275 578 275 543 q 272 596 275 586 q 231 628 261 628 q 192 618 214 628 l 104 585 l 69 668 l 157 704 q 239 722 203 722 q 357 629 322 722 q 369 567 369 596 q 257 436 369 481 q 183 361 183 408 q 382 92 183 92 q 581 361 581 92 q 907 722 581 722 q 1206 544 1140 722 l 1097 510 q 907 631 1054 631 q 694 361 694 631 q 708 239 694 290 q 872 315 767 289 q 985 331 933 331 q 1206 217 1128 331 q 964 3 1154 26 l 964 -379 l 711 -379 l 711 -287 l 850 -287 l 850 3 z "},"ၿ":{"ha":764,"x_min":69,"x_max":694,"o":"m 271 722 q 383 475 383 617 q 306 279 383 360 q 206 211 261 232 q 382 92 250 92 q 581 361 581 92 q 456 633 581 589 l 493 722 q 694 361 694 664 q 382 0 694 0 q 69 361 69 0 q 271 722 69 664 m 250 596 q 183 361 183 528 q 186 303 183 331 q 240 343 215 317 q 292 475 292 397 q 250 596 292 544 z "},"ႀ":{"ha":1275,"x_min":69,"x_max":1206,"o":"m 190 188 q 368 92 242 92 q 511 140 458 92 q 381 226 475 203 q 310 236 343 236 q 190 188 238 236 m 636 121 q 368 0 557 0 q 69 217 128 0 q 290 331 147 331 q 403 315 342 331 q 567 239 508 289 q 581 361 581 290 q 368 631 581 631 q 178 510 221 631 l 69 544 q 368 722 135 722 q 694 361 694 722 q 893 92 694 92 q 1092 361 1092 92 q 893 631 1092 631 l 893 722 q 1206 361 1206 722 q 893 0 1206 0 q 636 121 713 0 z "},"ႁ":{"ha":764,"x_min":69,"x_max":694,"o":"m 256 6 q 69 361 69 69 q 382 722 69 722 q 694 361 694 722 q 493 0 694 58 l 456 89 q 581 361 581 133 q 382 631 581 631 q 183 361 183 631 q 256 121 183 188 l 256 208 l 369 208 l 369 -379 l 117 -379 l 117 -287 l 256 -287 l 256 6 z "},"ႂ":{"ha":0,"x_min":-624,"x_max":-140,"o":"m -140 -237 q -381 -379 -161 -379 q -624 -206 -624 -379 q -381 -32 -624 -32 q -236 -54 -292 -32 l -275 -125 q -381 -101 -311 -101 q -526 -206 -526 -101 q -381 -310 -526 -310 q -236 -224 -247 -310 l -140 -237 z "},"ႃ":{"ha":253,"x_min":-60,"x_max":314,"o":"m 69 631 l -60 631 l -60 722 l 183 722 l 185 -287 l 314 -287 l 314 -379 l 71 -379 l 69 631 z "},"ႄ":{"ha":764,"x_min":69,"x_max":694,"o":"m 183 208 q 382 92 183 92 q 581 208 581 92 l 694 208 q 382 0 694 0 q 69 208 69 0 q 153 361 69 311 q 69 514 69 411 q 382 722 69 722 q 694 514 694 722 l 581 514 q 382 631 581 631 q 183 514 183 631 q 339 407 183 407 l 339 315 q 183 208 183 315 z "},"ႅ":{"ha":0,"x_min":-625,"x_max":-139,"o":"m -519 932 q -382 883 -519 883 q -228 974 -228 883 l -139 974 q -382 792 -139 792 q -625 932 -625 792 q -560 1035 -625 1001 q -625 1138 -625 1068 q -382 1278 -625 1278 q -139 1096 -139 1278 l -228 1096 q -382 1186 -228 1186 q -519 1138 -519 1186 q -415 1065 -519 1079 l -415 1004 q -519 932 -519 990 z "},"ႆ":{"ha":0,"x_min":-508,"x_max":-256,"o":"m -340 1035 q -382 1076 -340 1076 q -424 1035 -424 1076 q -382 993 -424 993 q -340 1035 -340 993 m -256 965 q -429 689 -256 758 l -461 768 q -344 911 -364 807 q -382 908 -361 908 q -508 1035 -508 908 q -382 1161 -508 1161 q -256 1035 -256 1161 l -256 965 z "},"ႇ":{"ha":392,"x_min":69,"x_max":322,"o":"m 238 126 q 196 168 238 168 q 154 126 154 168 q 196 85 154 85 q 238 126 238 85 m 322 57 q 149 -219 322 -150 l 117 -140 q 233 3 214 -101 q 196 0 217 0 q 69 126 69 0 q 196 253 69 253 q 322 126 322 253 l 322 57 z "},"ႈ":{"ha":392,"x_min":69,"x_max":322,"o":"m 238 126 q 196 168 238 168 q 154 126 154 168 q 196 85 154 85 q 238 126 238 85 m 322 57 q 149 -219 322 -150 l 117 -140 q 233 3 214 -101 q 196 0 217 0 q 69 126 69 0 q 196 253 69 253 q 322 126 322 253 l 322 57 m 196 722 q 322 596 322 722 q 196 469 322 469 q 69 596 69 469 q 196 722 69 722 m 238 596 q 196 638 238 638 q 154 596 154 638 q 196 554 154 554 q 238 596 238 554 z "},"ႉ":{"ha":392,"x_min":69,"x_max":322,"o":"m 196 253 q 322 126 322 253 q 196 0 322 0 q 69 126 69 0 q 196 253 69 253 m 238 126 q 196 168 238 168 q 154 126 154 168 q 196 85 154 85 q 238 126 238 85 z "},"ႊ":{"ha":611,"x_min":69,"x_max":542,"o":"m 196 554 q 238 596 238 554 q 196 638 238 638 q 154 596 154 638 q 196 554 154 554 m 196 467 q 69 596 69 467 q 196 722 69 722 q 322 596 322 722 q 319 558 322 575 q 463 675 424 578 l 542 643 q 265 467 472 467 l 196 467 m 196 88 q 238 129 238 88 q 196 171 238 171 q 154 129 154 171 q 196 88 154 88 m 196 0 q 69 129 69 0 q 196 256 69 256 q 322 129 322 256 q 319 92 322 108 q 463 208 424 111 l 542 176 q 265 0 472 0 l 196 0 z "},"ႋ":{"ha":392,"x_min":69,"x_max":322,"o":"m 196 488 q 322 361 322 488 q 196 235 322 235 q 69 361 69 235 q 196 488 69 488 m 238 361 q 196 403 238 403 q 154 361 154 403 q 196 319 154 319 q 238 361 238 319 z "},"ႌ":{"ha":739,"x_min":69,"x_max":669,"o":"m 543 488 q 669 361 669 488 q 543 235 669 235 q 417 361 417 235 q 543 488 417 488 m 585 361 q 543 403 585 403 q 501 361 501 403 q 543 319 501 319 q 585 361 585 319 m 196 488 q 322 361 322 488 q 196 235 322 235 q 69 361 69 235 q 196 488 69 488 m 238 361 q 196 403 238 403 q 154 361 154 403 q 196 319 154 319 q 238 361 238 319 z "},"ႍ":{"ha":0,"x_min":-694,"x_max":-69,"o":"m -69 -115 l -69 -207 l -694 -207 l -694 -115 l -69 -115 z "},"ႎ":{"ha":764,"x_min":69,"x_max":694,"o":"m 578 415 q 382 361 504 361 q 186 417 260 361 q 183 361 183 390 q 382 92 183 92 q 581 361 581 92 q 578 415 581 390 m 219 542 q 382 453 268 453 q 544 542 496 453 q 382 631 496 631 q 219 542 268 631 m 382 0 q 69 361 69 0 q 382 722 69 722 q 694 361 694 722 q 382 0 694 0 z "},"ႏ":{"ha":392,"x_min":69,"x_max":322,"o":"m 154 126 q 196 85 154 85 q 238 126 238 85 q 196 168 238 168 q 154 126 154 168 m 69 126 q 196 253 69 253 q 322 126 322 253 q 196 0 322 0 q 158 3 175 0 q 275 -140 178 -101 l 243 -219 q 69 57 69 -150 l 69 126 m 196 722 q 322 596 322 722 q 196 469 322 469 q 69 596 69 469 q 196 722 69 722 m 238 596 q 196 638 238 638 q 154 596 154 638 q 196 554 154 554 q 238 596 238 554 z "},"႐":{"ha":764,"x_min":69,"x_max":694,"o":"m 382 631 q 183 361 183 631 q 382 92 183 92 q 581 361 581 92 q 382 631 581 631 m 382 722 q 694 361 694 722 q 382 0 694 0 q 69 361 69 0 q 382 722 69 722 z "},"႑":{"ha":431,"x_min":0,"x_max":431,"o":"m 272 115 l 375 194 l 431 122 l 272 0 l 158 0 l 158 607 l 56 528 l 0 600 l 158 722 l 272 722 l 272 115 z "},"႒":{"ha":764,"x_min":69,"x_max":694,"o":"m 183 674 q 382 722 258 722 q 694 417 694 722 q 413 0 694 183 q 294 -192 294 -76 l 181 -192 q 350 96 181 -15 q 581 417 581 246 q 382 631 581 631 q 183 417 183 631 l 69 417 l 69 764 l 183 764 l 183 674 z "},"႓":{"ha":793,"x_min":69,"x_max":724,"o":"m 417 722 l 481 722 q 724 479 724 722 l 724 0 l 610 0 l 610 479 q 481 631 610 631 l 383 631 l 156 0 l 69 32 l 424 1013 l 510 981 l 417 722 z "},"႔":{"ha":738,"x_min":69,"x_max":668,"o":"m 396 665 l 156 0 l 69 32 l 424 1013 l 510 981 l 510 115 l 613 194 l 668 122 l 510 0 l 396 0 l 396 665 z "},"႕":{"ha":694,"x_min":69,"x_max":694,"o":"m 511 492 l 382 492 q 183 292 183 492 q 347 92 183 92 q 511 361 511 92 l 511 492 m 625 583 l 694 583 l 694 492 l 625 492 l 625 361 q 347 0 625 0 q 69 292 69 0 q 382 583 69 583 l 511 583 l 511 972 l 625 972 l 625 583 z "},"႖":{"ha":694,"x_min":69,"x_max":694,"o":"m 511 361 q 347 631 511 631 q 183 431 183 631 q 382 231 183 231 l 511 231 l 511 361 m 625 -250 l 511 -250 l 511 139 l 382 139 q 69 431 69 139 q 347 722 69 722 q 625 361 625 722 l 625 231 l 694 231 l 694 139 l 625 139 l 625 -250 z "},"႗":{"ha":653,"x_min":69,"x_max":583,"o":"m 583 722 l 247 92 l 583 92 l 583 0 l 69 0 l 406 631 l 69 631 l 69 722 l 583 722 z "},"႘":{"ha":764,"x_min":69,"x_max":694,"o":"m 382 631 q 183 361 183 631 q 382 92 183 92 q 581 361 581 92 q 382 631 581 631 m 565 676 q 694 361 694 593 q 382 0 694 0 q 69 361 69 0 q 199 676 69 593 q 69 992 69 760 l 183 992 q 382 722 183 722 q 581 992 581 722 l 694 992 q 565 676 694 760 z "},"႙":{"ha":764,"x_min":69,"x_max":694,"o":"m 382 361 q 581 631 581 361 q 382 900 581 900 q 183 631 183 900 q 382 361 183 361 m 565 315 q 694 0 694 232 l 581 0 q 382 269 581 269 q 183 0 183 269 l 69 0 q 199 315 69 232 q 69 631 69 399 q 382 992 69 992 q 694 631 694 992 q 565 315 694 399 z "},"ႚ":{"ha":392,"x_min":69,"x_max":322,"o":"m 196 722 q 322 596 322 722 q 196 469 322 469 q 69 596 69 469 q 196 722 69 722 m 238 596 q 196 638 238 638 q 154 596 154 638 q 196 554 154 554 q 238 596 238 554 z "},"ႛ":{"ha":392,"x_min":69,"x_max":322,"o":"m 238 596 q 196 638 238 638 q 154 596 154 638 q 196 554 154 554 q 238 596 238 554 m 322 526 q 149 250 322 319 l 117 329 q 233 472 214 368 q 196 469 217 469 q 69 596 69 469 q 196 722 69 722 q 322 596 322 722 l 322 526 z "},"ႜ":{"ha":611,"x_min":69,"x_max":542,"o":"m 196 168 q 154 126 154 168 q 196 85 154 85 q 238 126 238 85 q 196 168 238 168 m 265 256 q 542 79 472 256 l 463 47 q 319 164 424 144 q 322 126 322 147 q 196 0 322 0 q 69 126 69 0 q 196 256 69 256 l 265 256 m 196 635 q 154 593 154 635 q 196 551 154 551 q 238 593 238 551 q 196 635 238 635 m 265 722 q 542 546 472 722 l 463 514 q 319 631 424 611 q 322 593 322 614 q 196 467 322 467 q 69 593 69 467 q 196 722 69 722 l 265 722 z "},"ႝ":{"ha":0,"x_min":-625,"x_max":-69,"o":"m -69 556 l -183 556 l -183 792 q -358 943 -183 943 q -533 833 -533 943 l -625 833 q -347 1035 -625 1035 q -69 792 -69 1035 l -69 556 z "},"႞":{"ha":253,"x_min":-60,"x_max":314,"o":"m 69 631 l -60 631 l -60 722 l 183 722 l 185 -287 l 314 -287 l 314 -379 l 71 -379 l 69 631 m 128 1058 q 254 932 254 1058 q 128 806 254 806 q 1 932 1 806 q 128 1058 1 1058 m 169 932 q 128 974 169 974 q 86 932 86 974 q 128 890 86 890 q 169 932 169 890 z "},"႟":{"ha":993,"x_min":69,"x_max":993,"o":"m 694 -217 q 753 -287 694 -287 q 810 -217 810 -287 l 810 417 q 610 736 810 640 q 408 1047 408 833 q 721 1360 408 1360 q 993 1206 933 1360 l 919 1164 q 721 1268 872 1268 q 500 1047 500 1268 q 649 819 500 890 q 924 417 924 688 l 924 -217 q 753 -379 924 -379 q 581 -217 581 -379 l 581 361 q 382 631 581 631 q 183 361 183 631 q 308 89 183 133 l 271 0 q 69 361 69 58 q 382 722 69 722 q 694 361 694 722 l 694 -217 z "},"ꩠ":{"ha":1226,"x_min":69,"x_max":1157,"o":"m 1033 469 q 844 631 999 631 q 674 525 721 631 q 694 361 694 456 q 493 0 694 58 l 456 89 q 581 361 581 133 q 382 631 581 631 q 183 361 183 631 q 308 89 183 133 l 271 0 q 69 361 69 58 q 382 722 69 722 q 613 636 535 722 q 844 722 692 722 q 1157 361 1157 722 q 844 0 1157 0 q 818 138 818 78 q 846 281 818 208 q 953 432 886 389 q 1033 469 994 458 m 1043 379 q 992 353 1019 372 q 925 251 951 324 q 908 142 908 206 q 910 100 908 122 q 1043 361 1043 140 l 1043 379 z "},"ꩡ":{"ha":1275,"x_min":69,"x_max":1206,"o":"m 893 631 q 694 361 694 631 q 893 92 694 92 q 1092 361 1092 92 q 893 631 1092 631 m 581 361 q 382 631 581 631 q 183 361 183 631 q 257 286 183 314 q 369 156 369 242 q 357 93 369 126 q 239 0 322 0 q 157 18 203 0 l 69 54 l 104 138 l 192 104 q 231 94 214 94 q 272 126 261 94 q 275 144 275 136 q 224 199 275 179 q 69 361 69 253 q 382 722 69 722 q 638 604 561 722 q 893 722 714 722 q 1206 361 1206 722 q 893 0 1206 0 q 640 114 718 0 q 493 0 590 28 l 456 89 q 581 361 581 133 z "},"ꩢ":{"ha":1060,"x_min":69,"x_max":990,"o":"m 168 0 l 69 0 l 69 722 l 183 722 l 183 144 l 376 333 l 479 306 q 678 92 490 92 q 876 361 876 92 q 678 631 876 631 l 678 722 q 990 361 990 722 q 678 0 990 0 q 379 207 432 0 l 168 0 z "},"ꩣ":{"ha":1363,"x_min":69,"x_max":1293,"o":"m 668 379 q 617 353 644 372 q 550 251 576 324 q 533 142 533 206 q 535 100 533 122 q 668 361 668 140 l 668 379 m 981 631 q 782 361 782 631 q 981 92 782 92 q 1179 361 1179 92 q 981 631 1179 631 m 725 118 q 469 0 649 0 q 443 138 443 78 q 471 281 443 208 q 578 432 511 389 q 658 469 619 458 q 426 631 624 631 q 183 361 183 631 q 257 286 183 314 q 369 156 369 242 q 357 93 369 126 q 239 0 322 0 q 157 18 203 0 l 69 54 l 104 138 l 192 104 q 231 94 214 94 q 272 126 261 94 q 275 144 275 136 q 224 199 275 179 q 69 361 69 253 q 426 722 69 722 q 721 597 635 722 q 981 722 797 722 q 1293 361 1293 722 q 981 0 1293 0 q 725 118 801 0 z "},"ꩤ":{"ha":1275,"x_min":69,"x_max":1206,"o":"m 893 631 q 694 361 694 631 q 893 92 694 92 q 1092 361 1092 92 q 893 631 1092 631 m 638 118 q 382 0 561 0 q 69 361 69 0 q 271 722 69 664 l 308 633 q 183 361 183 589 q 382 92 183 92 q 581 361 581 92 q 456 633 581 589 l 493 722 q 640 608 590 694 q 893 722 718 722 q 1206 361 1206 722 q 893 0 1206 0 q 638 118 714 0 z "},"ꩥ":{"ha":1275,"x_min":69,"x_max":1206,"o":"m 581 57 q 382 0 506 0 q 69 361 69 0 q 382 722 69 722 l 382 631 q 183 361 183 631 q 382 92 183 92 q 581 361 581 92 q 893 722 581 722 q 1206 361 1206 722 q 893 0 1206 0 l 893 92 q 1092 361 1092 92 q 893 631 1092 631 q 694 361 694 631 l 694 -379 l 451 -379 l 451 -287 l 581 -287 l 581 57 z "},"ꩦ":{"ha":1226,"x_min":69,"x_max":1157,"o":"m 382 431 q 451 361 451 431 q 382 292 451 292 q 313 361 313 292 q 382 431 313 431 m 69 361 q 382 722 69 722 q 613 636 535 722 q 844 722 692 722 q 1157 361 1157 722 q 844 0 1157 0 l 844 92 q 1043 361 1043 92 q 844 631 1043 631 q 674 525 721 631 q 694 361 694 456 q 382 0 694 0 q 69 361 69 0 m 581 361 q 382 631 581 631 q 183 361 183 631 q 382 92 183 92 q 581 361 581 92 z "},"ꩧ":{"ha":1226,"x_min":69,"x_max":1157,"o":"m 382 0 q 69 361 69 0 q 382 722 69 722 q 613 636 535 722 q 844 722 692 722 q 1157 361 1157 722 q 844 0 1157 0 q 613 86 692 0 q 382 0 535 0 m 844 92 q 1043 361 1043 92 q 844 631 1043 631 q 674 525 721 631 q 694 361 694 456 q 674 197 694 267 q 844 92 721 92 m 581 361 q 382 631 581 631 q 183 361 183 631 q 382 92 183 92 q 581 361 581 92 m 382 431 q 451 361 451 431 q 382 292 451 292 q 313 361 313 292 q 382 431 313 431 z "},"ꩨ":{"ha":1226,"x_min":69,"x_max":1157,"o":"m 1063 383 l 1063 378 l 1064 383 l 1063 383 m 1043 379 q 992 353 1019 372 q 925 251 951 324 q 908 142 908 206 q 910 100 908 122 q 1043 361 1043 140 l 1043 379 m 382 722 q 613 636 535 722 q 844 722 692 722 q 1157 361 1157 722 q 844 0 1157 0 q 818 138 818 78 q 846 281 818 208 q 953 432 886 389 q 1033 469 994 458 q 844 631 999 631 q 674 525 721 631 q 694 361 694 456 q 382 0 694 0 q 69 361 69 0 q 382 722 69 722 m 382 92 q 581 361 581 92 q 382 631 581 631 q 183 361 183 631 q 382 92 183 92 m 382 431 q 451 361 451 431 q 382 292 451 292 q 313 361 313 292 q 382 431 313 431 z "},"ꩩ":{"ha":1226,"x_min":69,"x_max":1157,"o":"m 382 431 q 451 361 451 431 q 382 292 451 292 q 313 361 313 292 q 382 431 313 431 m 689 268 q 674 197 683 231 q 844 92 721 92 q 865 93 856 92 q 856 138 863 114 q 764 246 832 208 q 689 268 726 265 m 581 361 q 382 631 581 631 q 183 361 183 631 q 382 92 183 92 q 581 361 581 92 m 954 121 q 1043 361 1043 181 q 844 631 1043 631 q 674 525 721 631 q 694 363 694 456 q 807 326 753 356 q 943 165 908 272 q 954 121 950 143 m 382 0 q 69 361 69 0 q 382 722 69 722 q 613 636 535 722 q 844 722 692 722 q 1157 361 1157 722 q 844 0 1157 0 q 613 86 692 0 q 382 0 535 0 z "},"ꩪ":{"ha":1226,"x_min":69,"x_max":1157,"o":"m 689 268 q 674 197 683 231 q 844 92 721 92 q 865 93 856 92 q 856 138 863 114 q 764 246 832 208 q 689 268 726 265 m 581 361 q 382 631 581 631 q 183 361 183 631 q 382 92 183 92 q 581 361 581 92 m 954 121 q 1043 361 1043 181 q 844 631 1043 631 q 674 525 721 631 q 694 363 694 456 q 807 326 753 356 q 943 165 908 272 q 954 121 950 143 m 382 0 q 69 361 69 0 q 382 722 69 722 q 613 636 535 722 q 844 722 692 722 q 1157 361 1157 722 q 844 0 1157 0 q 613 86 692 0 q 382 0 535 0 z "},"ꩫ":{"ha":764,"x_min":-101,"x_max":694,"o":"m 250 126 q 292 247 292 178 q 240 379 292 325 q 186 419 215 406 q 183 361 183 392 q 250 126 183 194 m 108 572 q 382 722 181 722 q 694 361 694 722 q 493 0 694 58 l 456 89 q 581 361 581 133 q 382 631 581 631 q 206 511 250 631 q 306 443 261 490 q 383 247 383 363 q 271 0 383 106 q 69 361 69 58 q 79 481 69 426 q -101 722 -101 599 l -10 722 q 108 572 -10 653 z "},"ꩬ":{"ha":1500,"x_min":69,"x_max":1431,"o":"m 1118 0 q 806 361 806 0 q 822 514 806 447 q 835 569 835 546 q 750 631 835 631 q 665 569 665 631 q 678 514 665 546 q 694 361 694 447 q 382 0 694 0 q 69 361 69 0 q 271 722 69 664 l 308 633 q 183 361 183 589 q 382 92 183 92 q 581 361 581 92 q 576 482 581 447 l 574 499 q 561 579 561 544 q 750 722 561 722 q 939 579 939 722 q 926 499 939 544 l 925 482 q 919 361 919 447 q 1118 92 919 92 q 1317 361 1317 92 q 1192 633 1317 589 l 1229 722 q 1431 361 1431 664 q 1118 0 1431 0 z "},"ꩭ":{"ha":764,"x_min":-289,"x_max":694,"o":"m 140 596 q 99 638 140 638 q 57 596 57 638 q 99 554 57 554 q 140 596 140 554 m 203 679 q 382 722 274 722 q 694 361 694 722 q 382 0 694 0 l 382 92 q 581 361 581 92 q 382 631 581 631 q 197 361 197 631 l 197 -136 q -46 -379 197 -379 q -289 -136 -289 -379 l -197 -136 q -46 -287 -197 -287 q 83 -136 83 -287 l 83 471 q -28 596 -28 481 q 99 722 -28 722 q 203 679 172 722 z "},"ꩮ":{"ha":1275,"x_min":69,"x_max":1206,"o":"m 382 0 q 69 361 69 0 q 382 722 69 722 q 694 361 694 722 q 893 92 694 92 q 1092 361 1092 92 q 893 631 1092 631 l 893 722 q 1206 361 1206 722 q 893 0 1206 0 q 581 361 581 0 q 382 631 581 631 q 193 467 226 631 q 275 432 239 456 q 382 281 342 389 q 410 138 410 208 q 382 0 410 78 m 183 376 l 183 361 q 318 100 183 139 q 319 142 319 122 q 303 251 319 206 q 236 353 276 324 q 183 376 213 369 z "},"ꩯ":{"ha":1017,"x_min":69,"x_max":947,"o":"m 635 631 q 436 361 436 631 q 635 92 436 92 q 833 361 833 92 q 635 631 833 631 m 350 544 q 635 722 415 722 q 947 361 947 722 q 635 0 947 0 q 322 361 322 0 q 326 438 322 401 l 183 578 l 183 0 l 69 0 l 69 722 l 168 722 l 350 544 z "},"ꩰ":{"ha":0,"x_min":-599,"x_max":-165,"o":"m -382 1056 q -165 1001 -256 1056 l -210 924 q -382 964 -272 964 q -554 924 -492 964 l -599 1001 q -382 1056 -510 1056 m -382 903 q -165 849 -256 903 l -210 771 q -382 811 -272 811 q -554 771 -492 811 l -599 849 q -382 903 -510 903 z "},"ꩱ":{"ha":1226,"x_min":69,"x_max":1157,"o":"m 250 126 q 292 247 292 178 q 240 379 292 325 q 186 419 215 406 q 183 361 183 392 q 250 126 183 194 m 382 722 q 613 636 535 722 q 844 722 692 722 q 1157 361 1157 722 q 844 0 1157 0 l 844 92 q 1043 361 1043 92 q 844 631 1043 631 q 674 525 721 631 q 694 361 694 456 q 493 0 694 58 l 456 89 q 581 361 581 133 q 382 631 581 631 q 206 511 250 631 q 306 443 261 490 q 383 247 383 363 q 271 0 383 106 q 69 361 69 58 q 382 722 69 722 z "},"ꩲ":{"ha":1428,"x_min":0,"x_max":1358,"o":"m 1244 361 q 1046 631 1244 631 q 847 361 847 631 q 1046 92 847 92 q 1244 361 1244 92 m 222 158 l 222 161 q 160 278 222 210 q 97 160 97 208 q 160 69 97 69 q 222 158 222 69 m 222 310 l 222 361 q 535 722 222 722 q 790 604 714 722 q 1046 722 867 722 q 1358 361 1358 722 q 1046 0 1358 0 q 793 114 871 0 q 646 0 743 28 l 608 89 q 733 361 733 133 q 535 631 733 631 q 336 361 336 631 l 336 160 q 160 0 336 0 q 0 160 0 0 q 160 347 0 250 q 222 310 194 328 z "},"ꩳ":{"ha":1060,"x_min":69,"x_max":990,"o":"m 388 329 q 678 92 515 92 q 876 361 876 92 q 678 631 876 631 l 678 722 q 990 361 990 722 q 678 0 990 0 q 307 286 460 0 l 183 515 l 183 0 l 69 0 l 69 722 l 178 722 l 388 329 z "},"ꩴ":{"ha":993,"x_min":69,"x_max":993,"o":"m 393 -253 q 351 -211 393 -211 q 310 -253 310 -211 q 351 -294 310 -294 q 393 -253 393 -294 m 478 113 q 581 361 581 167 q 478 624 581 568 l 478 113 m 478 -168 q 725 -287 629 -287 q 810 -217 810 -287 l 810 417 q 610 736 810 640 q 408 1047 408 833 q 721 1360 408 1360 q 993 1206 933 1360 l 919 1164 q 721 1268 872 1268 q 500 1047 500 1268 q 649 819 500 890 q 924 417 924 688 l 924 -217 q 725 -379 924 -379 q 476 -282 618 -379 q 351 -379 463 -379 q 225 -253 225 -379 q 351 -126 225 -126 q 386 -129 371 -126 l 386 0 l 382 0 q 69 361 69 0 q 271 722 69 664 l 308 633 q 183 361 183 589 q 382 92 183 92 l 386 92 l 386 722 l 493 722 q 694 361 694 664 q 478 10 694 61 l 478 -168 z "},"ꩵ":{"ha":1451,"x_min":69,"x_max":1451,"o":"m 851 -253 q 810 -211 851 -211 q 768 -253 768 -211 q 810 -294 768 -294 q 851 -253 851 -294 m 844 92 q 1043 361 1043 92 q 844 631 1043 631 q 674 525 721 631 q 694 361 694 456 q 493 0 694 58 l 456 89 q 581 361 581 133 q 382 631 581 631 q 183 361 183 631 q 257 286 183 314 q 369 156 369 242 q 357 93 369 126 q 239 0 322 0 q 157 18 203 0 l 69 54 l 104 138 l 192 104 q 231 94 214 94 q 272 126 261 94 q 275 144 275 136 q 224 199 275 179 q 69 361 69 253 q 382 722 69 722 q 613 636 535 722 q 844 722 692 722 q 1157 361 1157 722 q 936 10 1157 57 l 936 -168 q 1183 -287 1088 -287 q 1268 -217 1268 -287 l 1268 417 q 1068 736 1268 640 q 867 1047 867 833 q 1179 1360 867 1360 q 1451 1206 1392 1360 l 1378 1164 q 1179 1268 1331 1268 q 958 1047 958 1268 q 1107 819 958 890 q 1382 417 1382 688 l 1382 -217 q 1183 -379 1382 -379 q 935 -282 1076 -379 q 810 -379 921 -379 q 683 -253 683 -379 q 810 -126 683 -126 q 844 -129 829 -126 l 844 92 z "},"ꩶ":{"ha":1361,"x_min":-21,"x_max":1361,"o":"m 761 -253 q 719 -211 761 -211 q 678 -253 678 -211 q 719 -294 678 -294 q 761 -253 761 -294 m 754 722 q 1067 361 1067 722 q 846 10 1067 57 l 846 -168 q 1093 -287 997 -287 q 1178 -217 1178 -287 l 1178 417 q 978 736 1178 640 q 776 1047 776 833 q 1089 1360 776 1360 q 1361 1206 1301 1360 l 1288 1164 q 1089 1268 1240 1268 q 868 1047 868 1268 q 1017 819 868 890 q 1292 417 1292 688 l 1292 -217 q 1093 -379 1292 -379 q 844 -282 986 -379 q 719 -379 831 -379 q 593 -253 593 -379 q 719 -126 593 -126 q 754 -129 739 -126 l 754 92 q 953 361 953 92 q 754 631 953 631 q 556 361 556 631 l 556 -231 q 315 -379 556 -379 l 188 -379 q -21 -231 -21 -379 q 188 -83 -21 -83 l 274 -83 l 274 -175 l 188 -175 q 93 -231 93 -175 q 188 -287 93 -287 l 315 -287 q 442 -231 442 -287 l 442 479 q 313 631 442 631 q 161 479 161 631 l 69 479 q 313 722 69 722 q 519 631 461 722 q 754 722 597 722 z "},"꩷":{"ha":764,"x_min":69,"x_max":885,"o":"m 572 1110 q 433 1186 540 1186 q 282 1035 282 1186 q 433 883 282 883 l 433 792 q 190 1035 190 792 q 433 1278 190 1278 q 658 1149 611 1278 l 572 1110 m 546 14 l 719 -271 l 838 -197 l 885 -276 l 669 -408 l 460 -65 q 397 -112 431 -89 l 397 -287 l 536 -287 l 536 -379 l 283 -379 l 283 -72 l 325 -42 q 581 361 581 153 q 382 631 581 631 q 183 361 183 631 q 257 286 183 314 q 369 156 369 242 q 357 93 369 126 q 239 0 322 0 q 157 18 203 0 l 69 54 l 104 138 l 192 104 q 231 94 214 94 q 272 126 261 94 q 275 144 275 136 q 224 199 275 179 q 69 361 69 253 q 382 722 69 722 q 694 361 694 722 q 546 14 694 172 z "},"꩸":{"ha":1107,"x_min":69,"x_max":1176,"o":"m 69 521 l 160 582 q 239 311 239 492 q 160 40 239 131 l 69 101 q 125 311 125 168 q 69 521 125 454 m 493 431 q 226 568 300 431 l 325 624 q 493 522 372 522 q 661 624 614 522 l 760 568 q 493 431 686 431 m 661 0 q 493 101 614 101 q 325 0 372 101 l 226 56 q 493 193 300 193 q 706 125 629 193 l 785 436 q 1074 722 857 722 q 1176 708 1121 722 l 1154 619 q 1097 626 1124 626 q 896 407 951 626 l 792 0 l 661 0 z "},"꩹":{"ha":764,"x_min":69,"x_max":694,"o":"m 371 -42 q 581 361 581 146 q 382 631 581 631 q 183 361 183 631 q 257 286 183 314 q 369 156 369 242 q 357 93 369 126 q 239 0 322 0 q 157 18 203 0 l 69 54 l 104 138 l 192 104 q 231 94 214 94 q 272 126 261 94 q 275 144 275 136 q 224 199 275 179 q 69 361 69 253 q 382 722 69 722 q 694 361 694 722 q 467 -89 694 103 l 467 -287 l 606 -287 l 606 -379 l 353 -379 l 353 -57 l 371 -42 z "},"ꩺ":{"ha":1528,"x_min":69,"x_max":1458,"o":"m 833 361 q 635 631 833 631 q 436 361 436 631 q 635 92 436 92 l 635 0 q 322 361 322 0 q 635 722 322 722 q 947 361 947 722 q 1146 92 947 92 q 1344 361 1344 92 q 1146 631 1344 631 l 1146 722 q 1458 361 1458 722 q 1146 0 1458 0 q 947 57 1022 0 l 947 -194 q 735 -379 947 -379 l 283 -379 q 69 -194 69 -379 l 69 917 q 283 1101 69 1101 l 833 1101 l 833 1350 l 947 1350 l 947 1101 q 833 1010 947 1010 l 283 1010 q 183 917 183 1010 l 183 -194 q 283 -287 183 -287 l 735 -287 q 833 -194 833 -287 l 833 361 z "},"ꩻ":{"ha":392,"x_min":69,"x_max":322,"o":"m 154 126 q 196 85 154 85 q 238 126 238 85 q 196 168 238 168 q 154 126 154 168 m 69 126 q 196 253 69 253 q 322 126 322 253 q 196 0 322 0 q 158 3 175 0 q 275 -140 178 -101 l 243 -219 q 69 57 69 -150 l 69 126 z "},"◌":{"ha":826,"x_min":69,"x_max":757,"o":"m 665 581 q 632 547 665 547 q 597 581 597 547 q 632 615 597 615 q 665 581 665 615 m 564 647 q 532 614 564 614 q 497 647 497 614 q 532 682 497 682 q 564 647 564 682 m 732 481 q 697 446 732 446 q 664 481 664 446 q 699 514 664 514 q 732 481 732 514 m 757 363 q 724 329 757 329 q 689 363 689 329 q 724 396 689 396 q 757 363 757 396 m 446 672 q 413 638 446 638 q 379 672 379 638 q 413 706 379 706 q 446 672 446 706 m 329 647 q 294 614 329 614 q 261 647 261 614 q 294 682 261 682 q 329 647 329 682 m 732 244 q 697 211 732 211 q 664 244 664 211 q 697 279 664 279 q 732 244 732 279 m 229 581 q 194 547 229 547 q 161 579 161 547 q 194 615 161 615 q 229 581 229 615 m 665 143 q 632 110 665 110 q 597 143 597 110 q 632 178 597 178 q 665 143 665 178 m 564 76 q 532 44 564 44 q 497 76 497 44 q 532 111 497 111 q 564 76 564 111 m 161 481 q 129 446 161 446 q 94 481 94 446 q 128 514 94 514 q 161 481 161 514 m 138 363 q 104 329 138 329 q 69 363 69 329 q 104 396 69 396 q 138 363 138 396 m 446 54 q 413 19 446 19 q 379 54 379 19 q 413 88 379 88 q 446 54 446 88 m 161 244 q 128 211 161 211 q 94 244 94 211 q 128 279 94 279 q 161 244 161 279 m 329 79 q 294 44 329 44 q 261 76 261 44 q 294 111 261 111 q 329 79 329 111 m 229 143 q 194 110 229 110 q 161 143 161 110 q 194 178 161 178 q 229 143 229 178 z "}}}
